<?xml version="1.0" encoding="UTF-8" standalone="no"?>
<svg
   id="uuid-be07bfe2-5ae5-4cf2-9091-7b57285de8e1"
   viewBox="0 0 219.10001 219.1"
   version="1.1"
   width="219.10001"
   height="219.10001"
   xmlns="http://www.w3.org/2000/svg"
   xmlns:svg="http://www.w3.org/2000/svg">
  <defs
     id="defs9" />
  <rect
     x="0"
     y="0"
     width="219.10001"
     height="219.10001"
     rx="63.400002"
     ry="63.400002"
     fill="#ffffff"
     id="rect2" />
  <path
     d="m 156.5,172.5 c -8.2,0 -15,0.4 -21.7,-0.2 -2.1,-0.2 -4.8,-2.4 -6,-4.4 -6.6,-10.8 -13.3,-21.6 -19.2,-32.8 -2.8,-5.2 -6,-6.8 -11.7,-6.6 -13,0.4 -12.9,0.1 -12.5,13.5 0.3,9.9 0,19.8 0,30.2 H 62.5 V 46.600001 c 7.3,0 14.4,0 21.6,0 11.8,0 23.7,-0.9 35.3,0.6 17.8,2.3 30.7,16.4 34.2,34.7 2.7,14.4 -5.5,31.399999 -19.7,40.299999 -1.3,0.8 -2.7,1.6 -5,2.9 9,15.4 17.9,30.7 27.5,47.3 z M 85.6,107.9 c 8.5,0 16.8,0 25.1,0 11,0 18.9,-7.6 19.4,-18.299999 0.5,-11.4 -6.3,-20.4 -17.2,-21.4 -7.6,-0.7 -15.4,-0.4 -23,0 -1.5,0 -4.1,2.4 -4.1,3.8 -0.3,11.7 -0.2,23.4 -0.2,35.999999 z"
     fill="#6d4ea0"
     id="path4" />
</svg>
