<?xml version="1.0" encoding="UTF-8" standalone="no"?>
<svg
   id="uuid-50d077f9-2848-4f89-8d20-502c45409ba9"
   viewBox="0 0 219.10001 219.1"
   version="1.1"
   width="219.10001"
   height="219.10001"
   xmlns="http://www.w3.org/2000/svg"
   xmlns:svg="http://www.w3.org/2000/svg">
  <defs
     id="defs9" />
  <rect
     x="0"
     y="0"
     width="219.10001"
     height="219.10001"
     rx="63.400002"
     ry="63.400002"
     fill="#ffffff"
     id="rect2" />
  <path
     d="m 63.1,59.000001 c 15.1,0 28.4,-5.2 40.6,-13.8 6.5,-4.6 7.9,-4.3 14.3,0.3 12.2,8.7 25.7,13.6 40.8,13.5 14.5,0 14.6,0.7 15.3,14.9 0.8,16.4 -2.1,32.299999 -3.9,48.499999 -0.9,8.1 -1.3,16.3 -4.2,24.1 -4,10.9 -11.1,19 -21.1,24.7 -10.5,6 -20.9,12.1 -31.4,18 -1.3,0.7 -2.9,1.7 -4.7,0.7 -14.4,-8.1 -29.2,-15.5 -42.2,-25.8 -8.7,-7 -12.4,-17 -14.1,-27.8 -2.3,-14.5 -3.2,-29.1 -4.1,-43.799999 -0.4,-6.4 -0.7,-12.9 -1.2,-19.3 -1,-11.6 1.4,-14.3 12.9,-14.3 1,0 2,0 3,0 z m -2.8,28.8 C 60.2,101.4 61.5,114.9 63.6,128.2 c 1.6,10 3.8,20.2 12.3,27.2 9.9,8.2 21.9,13.1 32.8,19.7 1.4,0.9 3.3,0.5 5.1,-0.6 8.7,-5.1 17.7,-9.9 26.4,-15.1 5.5,-3.2 9.6,-7.6 12.4,-13.6 2.6,-5.6 3.5,-11.5 4.8,-17.4 3.7,-16.7 2.9,-33.799999 4.3,-50.699999 0.4,-4.3 -1.9,-5.5 -5.9,-5.8 -13.5,-1 -26.6,-4.3 -38.1,-11.4 -5.6,-3.4 -9.7,-3.2 -14.7,-0.3 -11.6,6.7 -24.1,10.8 -37.6,11.9 -3.1,0.2 -5.6,1.2 -5.1,5.4 0.4,3.4 0,7 0,10.4 z"
     fill="#296cb5"
     id="path4" />
</svg>
