<?xml version="1.0" encoding="UTF-8"?><svg id="uuid-bda248d1-cf80-4ac7-ba37-77cef6966c66" xmlns="http://www.w3.org/2000/svg" viewBox="0 0 466.5 466"><path d="M336.8,.2v-.2H129.7C58.1,0,0,58.3,0,129.9v206.4c0,71.6,58.1,129.7,129.7,129.7h207.1c71.6,0,129.7-58.1,129.7-129.7V129.9C466.5,58.3,408.4,.2,336.8,.2ZM127.5,260.3c0,.6,0,.6-.6,.6-.1,0-.3,0-.4,0-8.6,0-17.2,0-25.8,0-3.9,0-7.6-.5-11.2-2-4.8-1.9-8.3-5.1-10.3-9.9-1-2.3-1.4-4.7-1.7-7.1-.2-1.5-.2-3-.2-4.5v-41.4c0-.5-.2-1.1,.1-1.4,.3-.3,.9-.1,1.4-.1,3,0,6,0,8.9,0,1,0,1-.1,1,1v42.6c0,1.4,.2,2.8,.5,4.2,.6,2.3,2,4.1,4.1,5.3,1.8,1,3.7,1.5,5.7,1.7,1.2,.1,2.4,.2,3.7,.2,7.9,0,15.7,0,23.6,0s.4,0,.6,0c.6,0,.6,0,.6,.6,0,3.4,0,6.8,0,10.2Zm12.3-55.7c0-5.2,3.8-9.5,9-10.1,.4,0,.8,0,1.1,0h11.6c5.5,0,9.9,4.2,10.1,9.6,0,2.1,0,4.2,0,6.3s0,4.2,0,6.3c-.2,5-4,8.9-8.9,9.5,0,0,0,0,0,0-1.3,0-1.1,0-1.1-1,0-1.5,0-3,0-4.5,0-.4,.2-.6,.6-.7,2.2-.4,3.5-1.9,3.5-4.1,0-3.8,0-7.6,0-11.4,0-1.9-1.1-3.4-2.8-3.9-.5-.1-.9-.2-1.4-.2-3.8,0-7.5,0-11.3,0-2.5,0-4.3,2-4.2,4.3,0,3.7,0,7.5,0,11.2,0,2.2,1.2,3.8,3.4,4.2,.4,0,.6,.2,.6,.7,0,1.6,0,3.2,0,4.9,0,.6,0,.6-.6,.6-3.8-.2-7.4-2.7-8.9-6.6-.4-1.2-.6-2.4-.6-3.6,0-3.8,0-7.6,0-11.5Zm20.3,5.4c0,.2,0,.4,0,.7v34.3c0,.2,0,.4,0,.7,0,1.3-1,2.3-2.4,2.4-1.2,0-2.5,0-3.7,0-1.5,0-2.4-1.1-2.4-2.6,0-3,0-6.1,0-9.2v-25.4c0-.2,0-.5,0-.7,0-1.4,1-2.4,2.4-2.5,1.3,0,2.5,0,3.8,0,1.4,0,2.3,1.1,2.4,2.4Zm11.7,35.3h0c0,2.1,0,4.2,0,6.3-.2,5.4-4.6,9.6-10.1,9.6-3.9,0-7.8,0-11.7,0-5.6,0-10.1-4.5-10.1-10.1,0-3.9,0-7.8,0-11.7,0-5.2,3.9-9.5,9.1-10.1q1-.1,1,.9v4.5c0,.6,0,.6-.6,.7-2.1,.4-3.4,1.9-3.4,4,0,3.8,0,7.6,0,11.5,0,1.9,1.5,4.2,4.2,4.2,2,0,4,0,5.9,0s3.5,0,5.3,0c2.6,0,4.4-2,4.3-4.3,0-3.7,0-7.5,0-11.2,0-1.9-1.1-3.4-2.8-4,0,0-.2,0-.2,0-.3-.1-.7,0-.9-.2-.2-.3,0-.7,0-1.1,0-1.4,0-2.8,0-4.2,0-.8,0-.8,.8-.7,3.1,.3,5.6,1.7,7.5,4.2,1.4,1.9,1.9,4,1.9,6.3,0,1.8,0,3.6,0,5.4Zm81.3-48.7v51c0,1.9-.2,3.8-.8,5.6-1.5,4.3-4.4,7.1-8.8,8.2-3.5,.9-7.1,.9-10.6,0-3.3-.8-5.9-2.7-7.9-5.5-.9-1.3-1.7-2.7-2.2-4.1-1-2.6-2.2-5.2-3.4-7.7-5.4-11.8-10.8-23.7-16.2-35.5,0-.2-.2-.4-.3-.7-.9-1.9-2.6-2.9-5.2-2.3-1.6,.3-2.5,1.5-2.7,3.1,0,.4,0,.8,0,1.2v50c0,1.2,.2,1.1-1.1,1.1-3.1,0-6.2,0-9.4,0s-.4,0-.6,0c-.3,0-.4-.1-.4-.4,0-.2,0-.5,0-.7v-51.1c0-1.7,.2-3.5,.7-5.1,1.4-4.6,4.4-7.5,9.1-8.6,3.3-.8,6.7-.8,10.1,0,2.6,.6,4.8,1.9,6.6,3.9,1.6,1.8,2.8,3.8,3.7,6,1.4,3.5,3.1,6.9,4.7,10.4,5,10.9,10,21.8,14.9,32.6,.3,.7,.7,1.4,1.3,2,1.3,1.3,3.7,1.7,5.3,.7,.9-.5,1.4-1.3,1.6-2.4s0-1,0-1.5c0-16.6,0-33.2,0-49.7,0-1.5-.2-1.2,1.3-1.2,3.1,0,6.2,0,9.3,0,.2,0,.4,0,.6,0,.3,0,.5,.1,.4,.4,0,.2,0,.4,0,.6Zm69.9,64.3c-3.8,0-7.6,0-11.4,0-.6,0-.8-.2-1.1-.7-3.2-6.2-6.4-12.4-9.5-18.6-.5-1-1.1-2-1.7-3-1.7-2.7-4.2-4.1-7.3-4.6-2.6-.4-5.2-.4-7.9-.5-2.3,0-4.6,0-6.8,0s-.8,0-.8,.8v25.3c0,1.3,.2,1.1-1.1,1.1-3.1,0-6.2,0-9.3,0s-.4,0-.7,0c-.3,0-.4-.1-.4-.4,0-.2,0-.4,0-.7v-63.7c0-.6,0-.6,.7-.6,3.4,0,6.7,0,10.1,0,.7,0,.7,0,.7,.7v26.3c0,.6,0,.6,.7,.6,4.1,0,8.2,.1,12.3-.2,1,0,2-.2,3-.5,1.9-.5,3.5-1.6,4.7-3.2,1.1-1.5,2-3.2,2.8-4.8,3-6,6.1-12,9.2-17.9,.6-1.1,.2-.9,1.5-.9,3.4,0,6.8,0,10.2,0h1c-.6,1.2-1.1,2.2-1.6,3.3-2.8,5.5-5.5,11-8.3,16.5-1.2,2.3-2.5,4.6-4,6.6-1.8,2.4-4,4.2-6.7,5.5-.2,0-.4,.2-.6,.3,0,0,0,0,0,0,.1,.1,.3,.2,.5,.2,2.9,.8,5.3,2.5,7.3,4.8,1.4,1.5,2.4,3.2,3.4,5,2.1,3.7,3.9,7.4,5.8,11.2,1.9,3.7,3.8,7.5,5.8,11.2,.1,.2,.3,.4,.3,.7-.2,.2-.4,0-.6,0Zm65.5-64.1v43.8c0,2.5-.3,5-1,7.5-1.7,6.2-5.7,10.1-11.9,11.9-2.5,.7-5,1-7.5,1-5.1,0-10.3,0-15.4,0-2.7,0-5.3-.3-7.9-1.1-6-1.8-9.7-5.7-11.4-11.7-.7-2.4-1-4.8-1-7.2,0-14.8,0-29.6,0-44.4s0-.9,.8-.9c2.3,0,4.7,0,7,0s2.1,0,3.2,0c.7,0,.7,0,.7,.7v43c0,1.1,0,2.2,.3,3.3,.8,3.7,3.2,6,7,6.7,1.1,.2,2.3,.3,3.5,.3h11.7c1.4,0,2.7-.1,4-.5,3.5-.9,5.5-3.1,6.3-6.6,.3-1.1,.3-2.2,.3-3.3v-42.5c0-1.3-.2-1.1,1.1-1.1,3,0,6,0,9,0,.2,0,.4,0,.6,0,.5,0,.6,.2,.5,.6,0,.2,0,.4,0,.7Z"/></svg>