<?xml version="1.0" encoding="UTF-8" standalone="no"?>
<svg
   id="uuid-8f4e7f09-804a-48c9-9046-ba3ff8a92703"
   viewBox="0 0 466.5 466"
   version="1.1"
   width="80"
   height="80"
   xmlns="http://www.w3.org/2000/svg"
   xmlns:svg="http://www.w3.org/2000/svg">
  <defs
     id="defs9" />
  <path
     d="M 336.8,0.2 V 0 H 129.7 C 58.1,0 0,58.3 0,129.9 V 336.3 C 0,407.9 58.1,466 129.7,466 h 207.1 c 71.6,0 129.7,-58.1 129.7,-129.7 V 129.9 C 466.5,58.3 408.4,0.2 336.8,0.2 Z"
     fill="#ffffff"
     id="path2" />
  <path
     d="m 337.4,181.7 c -0.1,5.2 -5,9 -10,8.1 -9.9,-1.8 -19.6,-3.5 -29.5,-5.5 -5,-0.9 -8.1,-5.5 -7.4,-10.2 0.9,-5 5.5,-8.3 10.6,-7.5 1.8,0.3 3.5,0.6 5.9,1 -3.7,-4.4 -7.7,-7.5 -11.8,-10.5 -11.8,-8.4 -24.8,-14 -39.1,-16.4 -22,-3.7 -42.7,0 -62,11.1 -19.9,11.4 -33.8,28 -41.6,49.4 -6.9,19 -7.5,38.4 -1.8,57.9 6.2,21.3 18.6,38.2 36.8,50.9 13.9,9.6 29.4,15.1 46.3,16.2 19.8,1.3 38.4,-3.1 55.4,-13.4 11.8,-7.2 21.6,-16.5 29.2,-28 1.8,-2.7 4,-4.7 7.2,-5 3.7,-0.3 6.8,1 8.7,4.3 2.1,3.4 1.8,6.9 -0.4,10.2 -4.9,7.2 -10.5,14 -16.8,19.9 -11.8,10.9 -25.2,19.2 -40.4,24.4 -13.6,4.7 -27.8,6.6 -42.1,5.9 -16.7,-0.9 -32.5,-5.2 -47.2,-13.3 -30.1,-16.8 -49,-42.1 -56.2,-75.7 -5.9,-27.8 -1.3,-54 12.8,-78.5 13.4,-23.3 33.2,-39.6 58.5,-48.9 15.1,-5.6 30.7,-7.7 46.8,-6.3 22.3,1.8 42.4,9.6 59.9,23.3 3.7,2.8 7.1,5.9 10.3,9.2 0.1,0 0.4,-0.1 0.6,-0.3 v -2.7 c 0.3,-4.9 4.3,-8.6 9.2,-8.4 4.9,0 8.7,3.8 8.7,8.7 0,9.9 -0.1,19.9 -0.6,29.8 z m -89.9,39.9 c 0,1.6 0.4,2.7 1.8,3.8 5.2,4 7.5,9.3 6.5,15.8 -0.3,1.8 0.1,3 1.5,4.1 6.5,6.3 13,12.8 19.3,19.3 4,4.1 4.1,9.6 0.4,13.3 -3.7,3.7 -9.2,3.4 -13.3,-0.6 -6.9,-6.8 -13.7,-13.7 -20.5,-20.5 -0.9,-0.9 -1.8,-1.3 -3.1,-1.2 -7.4,0.3 -13.7,-3.8 -16.2,-10 -2.8,-6.9 -1.2,-14 4.4,-19.2 1,-1 1.2,-2.1 1.2,-3.2 v -49.3 c 0,-6.1 4.4,-10 10,-9.4 4.6,0.4 8,4.3 8,9.3 v 48 0 z m -8.1,11.2 c -3.2,0 -6.1,2.7 -5.9,5.9 0,3.2 2.8,5.9 6.1,5.9 3.3,0 5.8,-2.7 5.8,-5.8 0,-3.1 -2.7,-5.9 -5.9,-5.9 v 0 z"
     id="path4" />
</svg>
