<?xml version="1.0" encoding="UTF-8" standalone="no"?>
<svg
   id="uuid-8459e606-ea5a-442f-a82b-a04170cf1ce9"
   viewBox="0 0 219.73 219.72999"
   version="1.1"
   width="219.73"
   height="219.73"
   xmlns="http://www.w3.org/2000/svg"
   xmlns:svg="http://www.w3.org/2000/svg">
  <defs
     id="defs13" />
  <rect
     x="0"
     y="0"
     width="219.73"
     height="219.73"
     rx="63.578999"
     ry="63.578999"
     fill="#ffffff"
     id="rect2" />
  <g
     id="uuid-26bad3e0-3c58-48c1-80d7-3c49b9697964"
     transform="translate(-27.222,-20.743)">
    <path
       id="uuid-432f3c5a-a170-477c-ad0d-607ce6e86084"
       d="m 112.542,168.394 c 4.844,6.055 9.769,13.645 12.353,18.247 3.149,5.975 4.441,10.012 6.782,17.197 1.373,3.956 2.664,5.167 5.409,5.167 2.987,0 4.36,-2.018 5.41,-5.167 2.18,-6.782 3.875,-11.949 6.54,-16.874 5.248,-9.446 11.869,-17.843 18.328,-25.917 1.776,-2.261 13.08,-15.583 18.166,-26.159 0,0 6.217,-11.546 6.217,-27.693 0,-15.098 -6.136,-25.594 -6.136,-25.594 l -17.763,4.764 -10.819,28.42 -2.664,3.875 -0.565,0.727 -0.727,0.888 -1.211,1.453 -1.776,1.776 -9.608,7.832 -23.979,13.887 -3.956,23.172 z"
       fill="#36a852" />
    <path
       id="uuid-0b2798ba-6c27-454c-828b-ee44b37dbf78"
       d="m 87.755,132.949 c 5.894,13.403 17.117,25.11 24.787,35.444 l 40.612,-48.12 c 0,0 -5.732,7.509 -16.067,7.509 -11.546,0 -20.911,-9.204 -20.911,-20.831 0,-7.993 4.764,-13.483 4.764,-13.483 l -27.532,7.347 -5.652,32.134 z"
       fill="#f9bc15" />
    <path
       id="uuid-2f8e61cd-e576-4bab-952f-5bd895e71463"
       d="m 153.638,54.713 c 13.483,4.36 25.029,13.483 31.973,26.967 l -32.457,38.674 c 0,0 4.764,-5.571 4.764,-13.483 0,-11.869 -10.012,-20.831 -20.831,-20.831 -10.254,0 -16.148,7.428 -16.148,7.428 V 69.085 Z"
       fill="#557ebf" />
    <path
       id="uuid-61347bff-32e5-4971-86a4-61b5a477bcfa"
       d="m 95.183,71.749 c 8.074,-9.608 22.203,-19.539 41.742,-19.539 9.446,0 16.632,2.503 16.632,2.503 L 120.938,93.468 H 97.847 Z"
       fill="#4070b7" />
    <path
       id="uuid-34ea5e3b-f29b-4db1-805e-ab3864a316de"
       d="m 87.755,132.949 c 0,0 -5.329,-10.577 -5.329,-25.837 0,-14.452 5.652,-27.048 12.838,-35.283 l 25.756,21.719 z"
       fill="#ea4535" />
  </g>
</svg>
