<?xml version="1.0" encoding="UTF-8" standalone="no"?>
<svg
   id="uuid-c3b6c33f-ff1b-451b-aac4-528fcbb06770"
   viewBox="0 0 218.70394 219.10001"
   version="1.1"
   width="218.70393"
   height="219.10001"
   xmlns="http://www.w3.org/2000/svg"
   xmlns:svg="http://www.w3.org/2000/svg">
  <defs
     id="defs5">
    <clipPath
       id="uuid-fce7abf2-ec29-40f3-b8a4-2b6653668ad4">
      <rect
         x="376.10001"
         y="22.299999"
         width="219.10001"
         height="219.10001"
         rx="63.400002"
         ry="63.400002"
         fill="none"
         id="rect2" />
    </clipPath>
  </defs>
  <g
     clip-path="url(#uuid-fce7abf2-ec29-40f3-b8a4-2b6653668ad4)"
     id="g25"
     transform="translate(-376.10001,-22.299999)">
    <g
       id="g23">
      <path
         d="m 594.6,130 c 0,22.7 0,45.4 0,68.2 0,16.9 -12.8,35.6 -28.4,42.2 -7.7,3.2 -15.6,4.5 -23.8,4.5 -38.8,0 -77.5,0 -116.3,0 -13.1,0 -25.1,-3.5 -35,-12.2 -9.9,-8.7 -16.3,-19.6 -16.4,-33 -0.3,-46 0,-92 -0.1,-138 0,-23.4 22.9,-46.4 46.9,-46 42,0.7 84,0.1 126,0.2 18.8,0 32.2,9.2 41.4,25.2 4.2,7.3 6,15.2 5.9,23.8 -0.3,21.8 0,43.5 0,65.3 z m -76.8,38.1 c 11.1,0 22.1,0 33.2,0 11.4,-0.1 19.3,-6.2 22.3,-17.1 4,-14.4 -10.3,-31.1 -25.6,-26.3 -3.9,1.2 -4,-1 -4.7,-3.6 -6.9,-25.5 -34,-37 -56.8,-23.9 -3,1.7 -6.2,3.4 -6.1,8 0.2,19.5 0.1,38.9 0,58.4 0,3.5 1,4.7 4.6,4.6 11.1,-0.2 22.1,0 33.2,0 z m -40.9,-61.3 c -2.8,4.3 -5.4,2.1 -8,0.5 -2.8,-1.7 -3.9,-1.2 -3.9,2.3 0.1,18.3 0.2,36.6 0,55 0,4.2 2.5,3.8 4.7,3.3 2.5,-0.5 7.1,2.7 7.1,-3.4 0,-19.3 0,-38.5 0,-57.8 z m -22.8,29.7 c 0,9.2 0.1,18.3 0,27.5 0,3.4 1.2,4.1 4.3,4.2 3.5,0 3.5,-1.7 3.5,-4.2 0,-18.1 0,-36.3 0,-54.4 0,-2.8 -0.2,-4.6 -3.9,-4.6 -3.7,0 -3.9,2 -3.9,4.7 0,9 0,17.9 0,26.9 z m -7.3,1.5 c 0,-9.1 0,-18.3 0,-27.4 0,-1.2 0.8,-3.9 -1.7,-3.1 -2.8,0.9 -6.2,1.8 -6.2,6.2 0.1,17 0.1,33.9 0,50.9 0,3.4 1.6,3.4 4.2,3.6 3,0.1 3.9,-0.7 3.9,-3.8 -0.2,-8.8 0,-17.5 0,-26.3 z m -14.9,-21 c -4.3,6 -7.2,11.2 -7.7,16.4 -1,10.4 -0.1,20.9 -0.4,31.3 0,3.8 2.1,3.1 4.4,3.2 2.4,0.1 3.8,-0.1 3.8,-3.2 -0.2,-15.4 0,-30.7 0,-47.8 z M 417,148 c 0,-5.5 -0.1,-11.1 0,-16.6 0,-2.7 -0.7,-3.8 -3.5,-3.6 -2.3,0.2 -4.6,-0.1 -4.6,3.4 0,11 0,22.1 0,33.1 0,3.7 2.6,3.4 5.1,3.6 3.5,0.3 2.9,-2.1 2.9,-4.1 0,-5.3 0,-10.7 0,-16 z m -15.3,-14.4 c -8.8,5 -10.3,21.5 0,28.8 z"
         fill="#f15826"
         id="path7" />
      <path
         d="m 517.9,168.1 c -11.1,0 -22.1,-0.1 -33.2,0 -3.5,0 -4.6,-1.1 -4.6,-4.6 0.1,-19.5 0.2,-38.9 0,-58.4 0,-4.6 3.1,-6.3 6.1,-8 22.9,-13.1 50,-1.7 56.8,23.9 0.7,2.6 0.8,4.8 4.7,3.6 15.3,-4.7 29.6,11.9 25.6,26.3 -3,10.9 -10.9,17 -22.3,17.1 -11.1,0.1 -22.1,0 -33.2,0 z"
         fill="#fffdfc"
         id="path9" />
      <path
         d="m 477,106.9 c 0,19.3 0,38.5 0,57.8 0,6 -4.6,2.8 -7.1,3.4 -2.3,0.5 -4.8,0.8 -4.7,-3.3 0.2,-18.3 0.2,-36.6 0,-55 0,-3.5 1.1,-4 3.9,-2.3 2.6,1.6 5.2,3.8 8,-0.5 z"
         fill="#fffdfc"
         id="path11" />
      <path
         d="m 454.1,136.6 c 0,-9 0,-17.9 0,-26.9 0,-2.7 0.2,-4.7 3.9,-4.7 3.6,0 3.9,1.8 3.9,4.6 0,18.1 0,36.3 0,54.4 0,2.5 0,4.3 -3.5,4.2 -3.1,0 -4.4,-0.8 -4.3,-4.2 0.2,-9.2 0,-18.3 0,-27.5 z"
         fill="#fff0e9"
         id="path13" />
      <path
         d="m 446.8,138.1 c 0,8.8 -0.1,17.5 0,26.3 0,3.1 -0.9,3.9 -3.9,3.8 -2.6,-0.1 -4.2,-0.1 -4.2,-3.6 0.2,-17 0.1,-33.9 0,-50.9 0,-4.4 3.4,-5.3 6.2,-6.2 2.5,-0.8 1.7,1.8 1.7,3.1 0,9.1 0,18.3 0,27.4 z"
         fill="#fffdfc"
         id="path15" />
      <path
         d="m 431.9,117.2 c 0,17 0,32.4 0,47.8 0,3.1 -1.4,3.4 -3.8,3.2 -2.2,-0.1 -4.5,0.5 -4.4,-3.2 0.2,-10.4 -0.6,-21 0.4,-31.3 0.5,-5.2 3.4,-10.5 7.7,-16.4 z"
         fill="#fffdfc"
         id="path17" />
      <path
         d="m 417.1,148.1 c 0,5.3 0,10.7 0,16 0,2 0.6,4.4 -2.9,4.1 -2.5,-0.2 -5.1,0.1 -5.1,-3.6 0,-11 0,-22.1 0,-33.1 0,-3.5 2.3,-3.2 4.6,-3.4 2.8,-0.3 3.6,0.9 3.5,3.6 -0.2,5.5 0,11 0,16.6 z"
         fill="#fffdfc"
         id="path19" />
      <path
         d="m 401.7,133.7 v 28.8 c -10.3,-7.3 -8.8,-23.8 0,-28.8 z"
         fill="#fffdfc"
         id="path21" />
    </g>
  </g>
</svg>
