<?xml version="1.0" encoding="UTF-8" standalone="no"?>
<svg
   id="uuid-c3fc6529-1727-46dc-a2f9-b38dbbf40ee0"
   viewBox="0 0 149.70093 149.40024"
   version="1.1"
   width="149.70093"
   height="149.40024"
   xmlns="http://www.w3.org/2000/svg"
   xmlns:svg="http://www.w3.org/2000/svg">
  <defs
     id="defs5">
    <clipPath
       id="uuid-5c9ef719-e851-49f6-a4ea-47c048ed581a">
      <rect
         x="375.5"
         y="21.299999"
         width="219.10001"
         height="219.10001"
         rx="63.400002"
         ry="63.400002"
         fill="none"
         id="rect2" />
    </clipPath>
  </defs>
  <g
     clip-path="url(#uuid-5c9ef719-e851-49f6-a4ea-47c048ed581a)"
     id="g17"
     transform="translate(-410.19906,-56.199761)">
    <g
       id="g15">
      <path
         d="m 559.9,130.9 c -1.3,42.4 -32.2,74.6 -74.8,74.7 -43.2,0 -75.1,-32.7 -74.9,-74.9 0.2,-43.3 33,-74.6 74.8,-74.5 42.8,0.1 73.5,32.4 74.9,74.7 z m -35.7,0.3 c -0.6,-22.1 -16.9,-39.4 -39.3,-39.4 -21.9,0 -38.8,16.4 -39.1,38.8 -0.3,21.8 16.4,39.3 39,39.4 21.9,0 38.4,-16.7 39.3,-38.8 z"
         fill="#ee2325"
         id="path7" />
      <path
         d="m 524.2,131.1 c -0.9,22.1 -17.5,38.9 -39.3,38.8 -22.6,0 -39.3,-17.6 -39,-39.4 0.3,-22.4 17.2,-38.8 39.1,-38.8 22.3,0 38.6,17.3 39.3,39.4 z m -39.5,35 c 18.9,1.9 34.9,-17.3 35.8,-32.8 1.3,-22.5 -18.7,-37.3 -33.3,-38.1 -22.1,-1.2 -37,18.5 -37.9,33.6 -1.2,21.2 18.4,39.2 35.4,37.3 z"
         fill="#fff7f5"
         id="path9" />
      <path
         d="m 484.7,166.1 c -17,1.9 -36.6,-16.1 -35.4,-37.3 0.9,-15.1 15.8,-34.8 37.9,-33.6 14.6,0.8 34.7,15.6 33.3,38.1 -0.9,15.5 -16.9,34.7 -35.8,32.8 z m -13,-54.6 v 38.6 c 11.1,-6.8 21.8,-13.4 32.9,-20.2 -11.1,-6.2 -21.8,-12.2 -32.9,-18.4 z"
         fill="#ee2325"
         id="path11" />
      <path
         d="m 471.7,111.6 c 11,6.2 21.7,12.2 32.9,18.4 -11,6.8 -21.8,13.4 -32.9,20.2 z"
         fill="#ffffff"
         id="path13" />
    </g>
  </g>
</svg>
