<?xml version="1.0" encoding="UTF-8" standalone="no"?>
<svg
   id="uuid-a3c162c4-cf73-4088-b1fd-a624d35ecf45"
   viewBox="0 0 219.10001 219.1"
   version="1.1"
   width="219.10001"
   height="219.10001"
   xmlns="http://www.w3.org/2000/svg"
   xmlns:svg="http://www.w3.org/2000/svg">
  <defs
     id="defs15" />
  <rect
     x="0"
     y="0"
     width="219.10001"
     height="219.10001"
     rx="63.400002"
     ry="63.400002"
     fill="#ffffff"
     id="rect2" />
  <g
     id="g10"
     transform="translate(-26.9,-21.799999)">
    <path
       d="m 107.9,130 c 6.1,0 10.8,0.2 15.4,0 3,-0.2 4.6,1.2 5.8,3.5 8.1,17.1 16.2,34.1 24.4,51.2 3.3,6.9 2.2,9 -5.3,9 -14.6,0 -29.1,-0.2 -43.7,1.1 -5,0.4 -8,-1.6 -10.1,-6.1 -6.8,-14.5 -13.8,-28.9 -20.8,-43.4 -1.3,-2.7 -2.6,-5.3 -3.9,-8 -1.9,-4.1 -0.7,-6.3 3.9,-6.2 11.9,0.3 23.8,-1.7 34.2,-1.1 z m 8.5,33.4 c 0.3,-3.8 -1.7,-7.1 -4.9,-9.7 -1.8,-1.4 -4.3,-2.2 -6.3,-0.6 -1.9,1.5 -2.4,3.9 -1.5,6.2 1.2,3 2.7,5.8 5.4,8 1.8,1.4 3.6,1.8 5.5,1.2 2.2,-0.7 1.7,-2.9 1.8,-5.2 z"
       id="path4" />
    <path
       d="m 163.1,188.5 c -2,-0.3 -2.9,-1.7 -3.6,-3.2 -5.7,-11.8 -11.4,-23.6 -17.1,-35.5 -3.1,-6.3 -6,-12.8 -9.1,-19.1 -1.2,-2.4 -1,-4.1 0.8,-6.2 10.7,-12.4 21.1,-24.9 31.7,-37.4 3,-3.5 5.5,-3.3 7.5,0.8 7.4,15 14.6,30.1 21.8,45.1 1.2,2.5 2,5.2 3.5,7.5 2.4,3.5 0.9,6.3 -1.3,8.9 -10.3,12.1 -20.6,24.2 -30.9,36.3 -0.9,1.1 -1.7,2.5 -3.2,2.6 z m 7.1,-30.4 c 1,-4.2 -1.6,-7 -4.1,-9.6 -2.9,-3 -6.4,-1.8 -7.5,2.1 -1.1,3.9 1,6.9 2.8,10.1 1.5,2.6 3.7,3.7 6.5,3.1 3.3,-0.8 2,-3.7 2.3,-5.7 z m -8.3,-45.6 c 0.1,1 0.2,1.5 0.2,2 0,4.2 2.2,6.9 5.9,8.7 1.7,0.8 3.3,0.6 4.4,-0.9 2.4,-3.2 1.3,-6.5 0,-9.7 -0.4,-0.9 -0.8,-1.7 -1.3,-2.6 -1.5,-2.5 -3.5,-3.6 -6.5,-3 -3.8,0.8 -1.7,4 -2.6,5.5 z"
       id="path6" />
    <path
       d="m 81.3,126 c -2.8,0 -5.6,0 -8.5,0 -1.7,0 -2.8,-0.8 -3.7,-2.1 -1.1,-1.6 0,-2.9 1,-3.9 11,-12.4 22.1,-24.8 33.1,-37.2 1.8,-2.1 4.1,-3.5 6.9,-3.5 15.9,0.3 31.7,-1.7 47.6,-2 1.9,0 4,-0.7 5.3,1.6 1.3,2.5 -0.4,4.2 -1.7,5.7 -10.7,12.7 -21.4,25.4 -32.2,38 -1.4,1.6 -3,2.4 -5.2,2.4 -14.2,-0.2 -28.5,0 -42.7,1 z m 8.3,-6.9 c 5.3,0 11.4,-4.6 11.3,-8.4 0,-3.8 -3.1,-3.9 -5.6,-4.1 -4.7,-0.2 -11.7,5.1 -11.4,8.5 0.3,3.2 2.8,4.1 5.7,4 z M 114,107.3 c 3.9,0.3 6.5,-2 9.1,-4.4 1.7,-1.6 1.7,-3.6 1,-5.5 -0.6,-1.6 -2.3,-2.2 -4,-2.3 -4,-0.2 -7.6,1.3 -10.1,4.2 -1.2,1.4 -3.3,3.1 -1.9,5.6 1.3,2.5 3.7,2.4 6,2.3 z m 22.9,-11 c 5,0 11.4,-4.4 11.4,-8.1 0,-3.2 -2.3,-4.1 -5,-4.2 -5.4,-0.3 -11.8,4.2 -11.6,8.4 0.1,3.2 2.7,3.7 5.2,3.9 z"
       id="path8" />
  </g>
</svg>
