<?xml version="1.0" encoding="UTF-8" standalone="no"?>
<svg
   id="uuid-a5991504-fc93-41b9-8f47-955090b37692"
   viewBox="0 0 219.13001 219.13"
   version="1.1"
   width="219.13"
   height="219.13"
   xmlns="http://www.w3.org/2000/svg"
   xmlns:svg="http://www.w3.org/2000/svg">
  <defs
     id="defs17" />
  <rect
     x="0"
     y="0"
     width="219.13"
     height="219.13"
     rx="63.405998"
     ry="63.405998"
     fill="#ffffff"
     id="rect2" />
  <path
     d="m 153.452,113.847 c 3.32,1.458 6.74,2.725 9.936,4.416 5.281,2.794 5.98,4.862 4.115,10.483 -14.358,43.28 -70.350999,55.999 -102.098999,23.193 -18.037,-18.638 -22.599,-45.813 -11.648,-69.380001 10.628,-22.871 34.51,-36.976 59.904999,-35.378 24.047,1.513 46.02,18.458 53.788,41.48 1.933,5.729 1.281,7.592 -3.79,10.683 -3.129,1.908001 -6.476,3.258001 -10.122,3.801001 -0.243,-2.247 -1.022,-4.321001 -2.026,-6.323001 1.26,-0.343 2.55,-0.604 3.776,-1.043 7.33,-2.622 7.337,-2.665 4.152,-9.65 -11.564,-25.359 -39.432,-37.999 -66.116999,-29.988 -26.085,7.83 -42.55,34.545 -38.151,61.901001 3.679,22.878 23.092,42.032 45.969999,45.358 23.578,3.427 46.748,-8.601 57.301,-29.749 4.733,-9.484 3.9,-11.024 -6.933,-12.813 1.033,-2.246 1.966,-4.521 2.002,-7.05 z"
     fill="#426cb4"
     id="path4" />
  <path
     d="m 153.466,103.662 c -0.005,3.395 -0.009,6.79 -0.014,10.184 0,0 0.059,-0.059 0.059,-0.059 -10.637,-0.857 -20.403,1.036 -28.224,8.994 -6.653,6.769 -14.826,6.522 -23.094,4.636 -5.944999,-1.356 -10.242999,-7.416 -10.393999,-13.605 -0.08,-3.306 -0.005,-6.616 -0.017,-9.924 -0.014,-3.846 1.514,-7.022001 4.17,-9.722001 6.346999,-6.45 20.886999,-7.146 27.752999,-0.562 8.497,8.148001 18.189,11.589001 29.761,10.056001 z"
     fill="#426cb4"
     id="path6" />
  <path
     d="m 153.466,103.662 c -11.572,1.532 -21.264,-1.908 -29.761,-10.056001 -6.866,-6.584 -21.406,-5.888 -27.752999,0.562 -2.656,2.7 -4.184,5.875001 -4.17,9.722001 0.012,3.308 -0.063,6.618 0.017,9.924 0.151,6.189 4.449,12.249 10.393999,13.605 8.268,1.885 16.441,2.132 23.094,-4.636 7.821,-7.958 17.588,-9.851 28.224,-8.994 -0.036,2.529 -0.969,4.804 -2.002,7.05 l 0.074,-0.074 c -8.929,-1.027 -16.211,1.711 -22.899,8.011 -7.882,7.426 -24.24,8.447 -32.994999,3.162 -11.74,-7.088 -15.186,-26.339 -7.095,-39.426001 1.419,-2.295 3.199,-4.147 5.434,-5.668 9.506999,-6.471 25.969999,-6.057 34.657999,2.055 6.722,6.276 13.972,9.025 22.897,7.998 l -0.073,-0.075 c 1.004,2.002 1.783,4.077001 2.026,6.323001 0.084,0.188 0.06,0.36 -0.071,0.517 z"
     fill="#5dc6d9"
     id="path8" />
  <path
     d="m 151.51,120.838 c 10.833,1.789 11.666,3.329 6.933,12.813 -10.554,21.147 -33.724,33.176 -57.301,29.749 -22.877999,-3.326 -42.289999,-22.48 -45.969999,-45.358 -4.399,-27.355001 12.066,-54.071001 38.151,-61.901001 26.685999,-8.011 54.552999,4.629 66.116999,29.988 3.185,6.985 3.178,7.027 -4.152,9.65 -1.226,0.439 -2.515,0.7 -3.776,1.043 0,0 0.073,0.075 0.073,0.075 -2.778,-6.192 -6.204,-12.028 -9.988,-17.638 -4.345,-6.44 -10.501,-10.349 -17.984,-12.307 -7.026,-1.839 -14.169,-0.817 -21.254,-0.905 -7.739999,-0.096 -14.653999,2.645 -20.219999,7.998 -7.65,7.358 -12.384,16.655 -15.971,26.475001 -1.465,4.012 -1.794,8.427 -0.883,12.744 2.349,11.127 8.271,20.43 15.419,28.951 3.904,4.655 9.291,7.227 15.269,8.617 6.732999,1.566 13.521999,0.628 20.281999,0.808 6.48,0.172 12.326,-1.959 17.648,-5.603 9.067,-6.207 12.735,-16.185 17.681,-25.271 l -0.074,0.074 z"
     fill="#fefeff"
     id="path10" />
  <path
     d="m 151.584,120.764 c -4.946,9.086 -8.614,19.065 -17.681,25.271 -5.323,3.644 -11.168,5.775 -17.648,5.603 -6.76,-0.18 -13.549,0.758 -20.281999,-0.808 -5.978,-1.39 -11.365,-3.962 -15.269,-8.617 -7.147,-8.521 -13.07,-17.824 -15.419,-28.951 -0.911,-4.318 -0.582,-8.732 0.883,-12.744 3.586,-9.820001 8.321,-19.117001 15.971,-26.475001 5.566,-5.353 12.481,-8.094 20.219999,-7.998 7.085,0.088 14.228,-0.933 21.254,0.905 7.483,1.958 13.639,5.867 17.984,12.307 3.785,5.61 7.211,11.447 9.988,17.638 -8.925,1.027 -16.176,-1.722 -22.897,-7.998 -8.688,-8.112 -25.151,-8.526 -34.657999,-2.055 -2.235,1.521 -4.015,3.373 -5.434,5.668 -8.091,13.087001 -4.646,32.338001 7.095,39.426001 8.753999,5.285 25.111999,4.264 32.994999,-3.162 6.688,-6.3 13.969,-9.039 22.899,-8.011 z"
     fill="#426cb4"
     id="path12" />
</svg>
