<?xml version="1.0" encoding="UTF-8" standalone="no"?>
<svg
   id="uuid-46efc14f-0611-47ce-a56a-95b1e205428b"
   viewBox="0 0 219.10001 219.1"
   version="1.1"
   width="219.10001"
   height="219.10001"
   xmlns="http://www.w3.org/2000/svg"
   xmlns:svg="http://www.w3.org/2000/svg">
  <defs
     id="defs17" />
  <rect
     x="0"
     y="0"
     width="219.10001"
     height="219.10001"
     rx="63.400002"
     ry="63.400002"
     fill="#ffffff"
     id="rect2" />
  <g
     id="g12"
     transform="translate(-26.9,-21.799999)">
    <path
       d="m 128.3,160.5 c 0,2.8 -2.3,2.3 -4,2.3 -5.4,0 -10.9,0 -16.3,0 -5.4,0 -10.9,0 -16.4,0 -1.7,0 -4,0.7 -4,-2.2 0,-2.6 1.8,-2.7 3.7,-2.7 11.1,0 22.1,0 33.2,0 1.9,0 3.8,0 3.8,2.7 z"
       fill="#020202"
       id="path4" />
    <path
       d="m 197.9,108.1 c 0,-9.6 -9.1,-16.8 -16.5,-16.8 -32,0 -64,0 -95.9,0 -7.9,0 -15.9,8.5 -15.9,16.3 0,17.9 0,35.8 0,53.7 0,8.8 7.8,16.5 16.7,16.5 15.7,0 31.5,0 47.2,0 15.7,0 31.5,0 47.2,0 9.1,0 17.1,-7.3 17.2,-16.5 0.2,-17.7 0.1,-35.5 0,-53.2 z m -4.1,18.5 c -0.3,10.1 -0.3,20.2 0,30.3 0.2,8.4 -5,16.4 -15.9,16.1 -29.5,-0.6 -59,-0.5 -88.5,0 -9.7,0.1 -15.7,-5.9 -15.5,-15.6 0.2,-10.4 0.2,-20.9 0,-31.3 0,-3.2 0.8,-4.2 4.1,-4.2 18.7,0.2 37.4,0 56.1,0 18.7,0 36.8,0.1 55.2,0 3.8,0 4.7,1 4.6,4.7 z m -6,-9.4 c -18,-0.4 -36.1,-0.2 -54.1,-0.2 -18,0 -36.1,-0.2 -54.2,0.2 -5.1,0.1 -6,-1.6 -5.7,-6.1 0.4,-5.4 1.6,-10.1 6.5,-13.3 2.3,-1.5 4.5,-1.7 7,-1.7 30.5,0 60.9,0.3 91.4,-0.2 9.2,-0.1 14.8,7.2 15.1,15 0.2,4.8 -0.8,6.4 -6.1,6.3 z"
       fill="#020202"
       id="path6" />
    <path
       d="m 128.3,160.5 c 0,2.8 -2.3,2.3 -4,2.3 -5.4,0 -10.9,0 -16.3,0 -5.4,0 -10.9,0 -16.4,0 -1.7,0 -4,0.7 -4,-2.2 0,-2.6 1.8,-2.7 3.7,-2.7 11.1,0 22.1,0 33.2,0 1.9,0 3.8,0 3.8,2.7 z"
       fill="#ffffff"
       id="path8" />
    <path
       d="m 128.3,160.5 c 0,2.8 -2.3,2.3 -4,2.3 -5.4,0 -10.9,0 -16.3,0 -5.4,0 -10.9,0 -16.4,0 -1.7,0 -4,0.7 -4,-2.2 0,-2.6 1.8,-2.7 3.7,-2.7 11.1,0 22.1,0 33.2,0 1.9,0 3.8,0 3.8,2.7 z"
       fill="#020202"
       id="path10" />
  </g>
</svg>
