<?xml version="1.0" encoding="UTF-8" standalone="no"?>
<svg
   id="uuid-897fc8bd-9731-4922-a14d-e6f8023c004c"
   viewBox="0 0 219.10001 219.1"
   version="1.1"
   width="219.10001"
   height="219.10001"
   xmlns="http://www.w3.org/2000/svg"
   xmlns:svg="http://www.w3.org/2000/svg">
  <defs
     id="defs21" />
  <rect
     x="0"
     y="0"
     width="219.10001"
     height="219.10001"
     rx="63.400002"
     ry="63.400002"
     fill="#ffffff"
     id="rect2" />
  <g
     id="g16"
     transform="translate(-28.4,-22.299999)">
    <path
       d="m 142.6,142.8 c 9.3,0.6 18,-4.5 19.5,-17.5 0.3,-2.8 2,-4.2 4.2,-4.9 2,-0.7 3.9,0.8 4.5,2.2 0.7,1.9 0.6,4.3 0.3,6.4 -2.1,11.5 -10.2,21.7 -24.2,22.9 -2.6,0.2 -5.2,1.1 -7.9,0.5 -1.6,-0.4 -2,0.8 -2.8,2 -6,8.4 -13.4,15.5 -21.3,22.1 -2.6,2.1 -5.4,3.6 -8.1,0.3 -2.9,-3.6 -0.1,-5.7 2.4,-7.7 6.4,-5.1 12.4,-10.5 17,-17.3 0.4,-0.6 1.7,-0.6 0.1,-1.9 -9.1,-7.4 -6.8,-12.5 0,-21.8 2.4,-3.4 6,-5.8 10.2,-7 3.7,-1.1 6.7,0.5 7.9,4.2 2,6.1 -0.6,11.6 -1.6,17.6 z"
       fill="#a62527"
       id="path4" />
    <path
       d="m 95.6,130 c -1.4,10.4 -5.4,19.9 -11.3,28.6 -4.6,6.7 -10.4,12.3 -16.6,17.5 -1.6,1.4 -3.4,2.9 -5.7,2.5 -2,-0.4 -3.6,-1.8 -4.1,-3.9 -0.5,-2.1 0.9,-3.7 2.5,-4.9 10.5,-7.9 18.6,-17.6 23.4,-30.1 1.3,-3.4 2.2,-6.9 2.6,-10.4 0.4,-3.7 1.3,-7.1 5.3,-6.9 4.4,0.2 4.2,4.1 3.9,7.6 z"
       fill="#a72527"
       id="path6" />
    <path
       d="m 115.4,103.1 c -1.2,15.1 -1.3,30.3 -3.9,45.3 -0.6,3.2 -2,5.5 -5.1,5.3 -3.3,-0.3 -4.3,-2.8 -4,-6.1 0.8,-6.9 1.2,-13.8 2.1,-20.6 1.4,-10.4 0.8,-20.8 1.9,-31.2 0.3,-3.2 1.4,-5.5 4.9,-5.5 3.4,0 4.5,2.3 4.2,5.4 0,0.5 0,1 0,1.5 0,2 0,4 0,6 z"
       fill="#a72527"
       id="path8" />
    <path
       d="m 194,137.7 c 0,-4.6 -1.9,-7.8 -3.9,-11 -1.7,-2.7 -2.2,-5.7 0.4,-7.4 2.4,-1.6 5.4,-1.2 7.3,2 6.7,10.7 7.9,20.5 0.8,28.3 -4.7,5.1 -11,7.4 -17.1,10.1 -1.9,0.9 -4,1.3 -6,2.1 -2.6,1 -5.2,0.8 -6.2,-1.9 -1.1,-2.9 -0.6,-5.9 3.1,-7.1 6,-2 11.9,-4 17.2,-7.8 2.9,-2.1 4.7,-4.4 4.3,-7.4 z"
       fill="#a72527"
       id="path10" />
    <path
       d="m 143.2,169 c -3.5,0.4 -6.4,-1 -6.6,-4.4 -0.2,-3.6 2.5,-4.8 6.3,-4.9 4.7,-0.2 9.3,-1.6 14,-2.5 3.1,-0.6 6.1,-0.7 7.2,3.1 1.2,4.1 -1.7,5.7 -4.8,6.4 -5.3,1 -10.7,1.6 -16,2.3 z"
       fill="#a72528"
       id="path12" />
    <path
       d="m 135,131.9 c 0.8,3.6 -1.2,5.8 -1.6,8.3 -0.2,1.1 -0.5,2 -1.8,1.7 -1.5,-0.3 -1.6,-1.5 -1.3,-2.7 0.8,-2.7 2.7,-4.6 4.7,-7.3 z"
       fill="#f7eeed"
       id="path14" />
  </g>
</svg>
