<?xml version="1.0" encoding="UTF-8" standalone="no"?>
<svg
   id="uuid-5f553718-5bf0-4e96-8a7d-aa9f0aa2bcb9"
   viewBox="0 0 219.13001 219.13"
   version="1.1"
   width="219.13"
   height="219.13"
   xmlns="http://www.w3.org/2000/svg"
   xmlns:svg="http://www.w3.org/2000/svg">
  <defs
     id="defs17" />
  <rect
     x="0"
     y="0"
     width="219.13"
     height="219.13"
     rx="63.405998"
     ry="63.405998"
     fill="#ffffff"
     id="rect2" />
  <g
     id="g12"
     transform="translate(-28.304001,-19.308001)">
    <path
       d="m 76.797,151 c -8.462,-0.201 -16.918,0.132 -25.377,0.23 -0.589,0.007 -1.741,0.538 -1.578,-0.787 0.126,-1.025 -0.901,-2.577 1.177,-2.92 1.577,-0.26 3.131,-0.677 4.68,-1.084 1.757,-0.462 2.661,-1.578 2.721,-3.461 0.497,-15.647 0.496,-31.292 -0.008,-46.939 -0.055,-1.712 -0.821,-2.802 -2.475,-3.215 -1.614,-0.402 -3.228,-0.843 -4.869,-1.084 -2.093,-0.308 -1.094,-1.849 -1.236,-2.881 -0.18,-1.302 0.908,-0.863 1.529,-0.86 11.98,0.043 23.96,0.109 35.939,0.175 4.637,0.026 9.258,-0.246 13.861,-0.775 1.138,-0.131 1.616,-0.063 1.536,1.346 -0.285,5.042 -0.387,10.095 -0.595,15.142 -0.025,0.618 0.416,1.731 -0.862,1.559 -1.046,-0.141 -2.536,0.872 -3.03,-1.068 -0.576,-2.262 -1.187,-4.523 -1.943,-6.73 -1.438,-4.202 -2.963,-5.239 -7.331,-5.239 -6.052,0 -12.105,0.046 -18.156,-0.03 -1.607,-0.02 -2.117,0.449 -2.096,2.096 0.089,7.084 0.07,14.171 0.009,21.256 -0.011,1.276 0.298,1.711 1.625,1.638 3.88,-0.215 7.786,0.103 11.65,-0.45 3.078,-0.441 3.581,-0.97 4.285,-3.936 0.327,-1.376 0.805,-2.726 1.014,-4.117 0.351,-2.338 2.109,-1.397 3.31,-1.414 1.496,-0.022 0.806,1.287 0.757,1.955 -0.48,6.462 -0.471,12.925 -0.231,19.393 0.023,0.617 0.299,1.573 -0.845,1.346 -1.052,-0.209 -2.561,0.917 -3.105,-0.869 -0.411,-1.349 -0.606,-2.763 -0.993,-4.121 -0.624,-2.188 -2.078,-3.334 -4.397,-3.577 -4.006,-0.421 -8.021,-0.216 -12.029,-0.359 -0.856,-0.03 -1.026,0.327 -1.022,1.085 0.032,6.531 -0.016,13.062 0.07,19.592 0.035,2.644 1.646,4.34 4.472,4.468 6.168,0.279 12.352,0.325 18.517,-0.027 3.41,-0.195 5.833,-2.188 7.301,-5.241 1.199,-2.493 2.298,-5.035 3.451,-7.55 0.442,-0.963 2.6,-1.636 3.416,-1.081 0.475,0.323 0.225,0.788 0.181,1.175 -0.613,5.32 -1.276,10.634 -1.854,15.958 -0.137,1.256 -0.502,1.726 -1.907,1.694 C 93.84,151.1 85.322,150.811 76.798,151 Z"
       fill="#f15b23"
       id="path4" />
    <path
       d="m 203.801,142.286 c 1.928,-4.508 3.884,-9.004 5.776,-13.527 1.494,-3.573 2.98,-7.153 4.34,-10.778 1.186,-3.163 0.421,-4.472 -2.838,-5.497 -0.751,-0.236 -1.809,-0.011 -2.097,-1.121 -0.52,-2 -0.004,-2.696 2.04,-2.584 4.443,0.244 8.882,0.313 13.328,0.023 0.623,-0.041 1.734,-0.558 1.867,0.426 0.142,1.05 0.644,2.361 -0.573,3.239 -0.497,0.358 -0.982,0.818 -1.546,0.986 -2.439,0.731 -3.611,2.564 -4.544,4.745 -4.909,11.474 -9.79,22.962 -14.836,34.376 -2.328,5.265 -5.365,10.129 -9.825,13.936 -5.578,4.762 -14.048,5.757 -20.293,2.49 -0.945,-0.494 -1.221,-1.011 -0.943,-2.015 0.873,-3.15 1.346,-6.387 1.748,-9.616 0.264,-2.123 1.815,-1.103 2.79,-1.448 1.208,-0.428 1.102,0.669 1.237,1.285 0.37,1.681 0.608,3.391 0.962,5.076 0.456,2.168 1.519,3.015 3.733,3.081 3.204,0.095 5.86,-1.246 8.267,-3.19 0.765,-0.618 1.474,-1.315 2.151,-2.03 4.775,-5.037 4.854,-5.474 2.285,-11.831 -4.238,-10.488 -8.402,-21.005 -13.057,-31.321 -0.96,-2.128 -2.092,-3.841 -4.575,-4.355 -1.737,-0.36 -1.005,-1.864 -1.017,-2.893 -0.013,-1.136 1.016,-0.656 1.563,-0.627 6.114,0.326 12.216,0.166 18.316,-0.311 0.592,-0.046 1.702,-0.551 1.562,0.781 -0.097,0.923 0.748,2.148 -1.072,2.622 -5.691,1.483 -5.733,1.579 -3.743,7.083 2.778,7.687 5.656,15.337 8.491,23.004 0.167,-0.003 0.335,-0.006 0.502,-0.008 z"
       fill="#f15b23"
       id="path6" />
    <path
       d="m 162.473,107.818 c 3.276,0.093 6.448,0.499 9.563,1.344 1.014,0.275 1.397,0.746 1.164,1.839 -0.554,2.597 -0.77,5.242 -0.724,7.893 0.018,1.026 -0.337,1.453 -1.343,1.479 -0.917,0.024 -1.942,0.615 -2.337,-0.904 -0.37,-1.423 -1.043,-2.766 -1.423,-4.187 -0.524,-1.957 -1.866,-2.996 -3.674,-3.532 -2.373,-0.703 -4.753,-0.652 -7.091,0.204 -3.886,1.424 -5.035,5.62 -2.414,8.849 1.235,1.522 2.925,2.436 4.635,3.298 3.734,1.883 7.752,3.225 11.15,5.749 7.35,5.459 6.564,15.906 -1.517,20.204 -1.921,1.021 -3.984,1.615 -6.137,1.945 -5.587,0.859 -10.917,-0.348 -16.21,-1.923 -0.764,-0.227 -1.066,-0.572 -0.924,-1.452 0.501,-3.125 0.278,-6.262 0.024,-9.399 -0.044,-0.545 -0.592,-1.591 0.461,-1.604 1.014,-0.012 2.394,-0.804 3.051,0.794 0.748,1.819 1.486,3.644 2.285,5.442 2.17,4.882 9.507,6.651 13.755,3.337 2.748,-2.144 2.948,-6.59 0.423,-9.416 -1.649,-1.845 -3.844,-2.852 -6.025,-3.866 -3.181,-1.478 -6.5,-2.697 -9.305,-4.879 -5.4,-4.201 -5.973,-12.691 -1.173,-17.301 2.267,-2.178 5.09,-3.217 8.124,-3.678 1.885,-0.287 3.799,-0.529 5.663,-0.236 z"
       fill="#f15b23"
       id="path8" />
    <path
       d="m 115.205,128.856 c 0,-4.248 -0.053,-8.498 0.031,-12.745 0.026,-1.326 -0.393,-1.704 -1.67,-1.617 -1.536,0.105 -3.084,0.02 -4.627,0.027 -0.695,0.003 -1.497,0.08 -1.315,-0.973 0.15,-0.871 -0.731,-2.224 1.043,-2.431 0.548,-0.064 1.09,-0.206 1.623,-0.355 3.534,-0.986 6.032,-3.232 7.743,-6.407 1.146,-2.126 1.908,-4.395 2.347,-6.765 0.176,-0.951 0.464,-1.478 1.644,-1.426 3.058,0.135 2.528,-0.238 2.555,2.567 0.031,3.201 0.044,6.404 -0.014,9.605 -0.019,1.06 0.285,1.352 1.366,1.278 3.446,-0.236 6.903,-0.315 10.351,-0.538 1.134,-0.073 1.62,0.188 1.351,1.386 -0.148,0.658 -0.211,1.338 -0.274,2.011 -0.264,2.835 0.439,2.676 -3.034,2.467 -2.832,-0.17 -5.661,-0.407 -8.484,-0.688 -1.147,-0.114 -1.603,0.11 -1.592,1.413 0.067,7.449 0.035,14.9 0.041,22.35 0,0.677 -0.013,1.36 0.064,2.03 0.314,2.744 0.728,5.574 3.725,6.688 3.114,1.157 5.912,0.127 8.404,-1.932 0.36,-0.298 0.57,-1.466 1.314,-0.621 0.6,0.681 1.951,1.209 1.07,2.561 -0.033,0.051 -0.056,0.11 -0.086,0.163 -2.345,4.179 -9.298,6.646 -15.13,5.369 -4.994,-1.094 -8.052,-4.6 -8.338,-10.122 -0.229,-4.42 -0.046,-8.862 -0.046,-13.295 -0.021,0 -0.043,0 -0.064,0 z"
       fill="#f15b23"
       id="path10" />
  </g>
</svg>
