<?xml version="1.0" encoding="UTF-8" standalone="no"?>
<svg
   id="uuid-c2c28caf-7d5a-4636-822a-05831825e01b"
   viewBox="0 0 218.60001 218.6"
   version="1.1"
   width="218.60001"
   height="218.60001"
   xmlns="http://www.w3.org/2000/svg"
   xmlns:svg="http://www.w3.org/2000/svg">
  <defs
     id="defs7">
    <linearGradient
       id="uuid-43279c24-1015-441f-81ff-9dfea76c479a"
       x1="137"
       y1="34.5"
       x2="137"
       y2="224.89999"
       gradientUnits="userSpaceOnUse">
      <stop
         offset="0"
         stop-color="#3ec2f1"
         id="stop2" />
      <stop
         offset="1"
         stop-color="#446ab3"
         id="stop4" />
    </linearGradient>
  </defs>
  <rect
     x="0"
     y="0"
     width="218.60001"
     height="218.60001"
     rx="41.5"
     ry="41.5"
     fill="#ffffff"
     id="rect9" />
  <g
     id="g245"
     transform="translate(-27.6,-20.4)">
    <circle
       cx="137"
       cy="129.7"
       r="95.199997"
       fill="url(#uuid-43279c24-1015-441f-81ff-9dfea76c479a)"
       id="circle11"
       style="fill:url(#uuid-43279c24-1015-441f-81ff-9dfea76c479a)" />
    <g
       id="g243">
      <g
         id="g235">
        <g
           id="g17">
          <path
             d="m 137,58.7 c -0.6,0 -1.1,-0.5 -1.1,-1.1 V 41.1 c 0,-0.6 0.5,-1.1 1.1,-1.1 0.6,0 1.1,0.5 1.1,1.1 v 16.5 c 0,0.6 -0.5,1.1 -1.1,1.1 z"
             fill="#ffffff"
             id="path13" />
          <path
             d="m 137,219.3 c -0.6,0 -1.1,-0.5 -1.1,-1.1 v -16.5 c 0,-0.6 0.5,-1.1 1.1,-1.1 0.6,0 1.1,0.5 1.1,1.1 v 16.5 c 0,0.6 -0.5,1.1 -1.1,1.1 z"
             fill="#ffffff"
             id="path15" />
        </g>
        <g
           id="g23">
          <path
             d="m 129.9,50.6 c -0.5,0 -1,-0.4 -1,-1 l -0.7,-8 c 0,-0.6 0.4,-1.1 1,-1.1 0.6,0 1.1,0.4 1.1,1 l 0.7,8 c 0,0.6 -0.4,1.1 -1,1.1 0,0 0,0 0,0 z"
             fill="#ffffff"
             id="path19" />
          <path
             d="m 144.7,218.9 c -0.5,0 -1,-0.4 -1,-1 l -0.7,-8 c 0,-0.6 0.4,-1.1 1,-1.1 0.6,0 1.1,0.4 1.1,1 l 0.7,8 c 0,0.6 -0.4,1.1 -1,1.1 0,0 0,0 0,0 z"
             fill="#ffffff"
             id="path21" />
        </g>
        <g
           id="g29">
          <path
             d="m 116.1,53.1 c -0.5,0 -0.9,-0.3 -1,-0.8 L 113,44.5 c -0.1,-0.6 0.2,-1.1 0.7,-1.3 0.6,-0.1 1.1,0.2 1.3,0.7 l 2.1,7.8 c 0.1,0.6 -0.2,1.1 -0.7,1.3 0,0 -0.2,0 -0.3,0 z"
             fill="#ffffff"
             id="path25" />
          <path
             d="m 159.9,216.3 c -0.5,0 -0.9,-0.3 -1,-0.8 l -2.1,-7.8 c -0.1,-0.6 0.2,-1.1 0.7,-1.3 0.6,-0.1 1.1,0.2 1.3,0.7 l 2.1,7.8 c 0.1,0.6 -0.2,1.1 -0.7,1.3 0,0 -0.2,0 -0.3,0 z"
             fill="#ffffff"
             id="path27" />
        </g>
        <g
           id="g35">
          <path
             d="m 103,57.9 c -0.4,0 -0.8,-0.2 -1,-0.6 L 98.6,50 c -0.2,-0.5 0,-1.2 0.5,-1.4 0.5,-0.2 1.2,0 1.4,0.5 l 3.4,7.3 c 0.2,0.5 0,1.1 -0.5,1.4 -0.1,0 -0.3,0 -0.4,0 z"
             fill="#ffffff"
             id="path31" />
          <path
             d="m 174.4,211 c -0.4,0 -0.8,-0.2 -1,-0.6 l -3.4,-7.3 c -0.2,-0.5 0,-1.2 0.5,-1.4 0.5,-0.2 1.2,0 1.4,0.5 l 3.4,7.3 c 0.2,0.5 0,1.2 -0.5,1.4 -0.1,0 -0.3,0 -0.4,0 z"
             fill="#ffffff"
             id="path33" />
        </g>
        <g
           id="g41">
          <path
             d="m 90.8,64.9 c -0.3,0 -0.7,-0.2 -0.9,-0.4 l -4.6,-6.6 c -0.3,-0.5 -0.2,-1.1 0.3,-1.5 0.5,-0.3 1.1,-0.2 1.5,0.3 l 4.6,6.6 c 0.3,0.5 0.2,1.1 -0.3,1.5 C 91.2,64.9 91,65 90.8,65 Z"
             fill="#ffffff"
             id="path37" />
          <path
             d="m 187.7,203.3 c -0.3,0 -0.7,-0.2 -0.9,-0.4 l -4.6,-6.6 c -0.3,-0.5 -0.2,-1.1 0.3,-1.5 0.5,-0.3 1.1,-0.2 1.5,0.3 l 4.6,6.6 c 0.3,0.5 0.2,1.1 -0.3,1.5 -0.2,0.1 -0.4,0.2 -0.6,0.2 z"
             fill="#ffffff"
             id="path39" />
        </g>
        <g
           id="g47">
          <path
             d="m 80.1,73.9 c -0.3,0 -0.5,-0.1 -0.7,-0.3 l -5.7,-5.7 c -0.4,-0.4 -0.4,-1.1 0,-1.5 0.4,-0.4 1.1,-0.4 1.5,0 l 5.7,5.7 c 0.4,0.4 0.4,1.1 0,1.5 -0.2,0.2 -0.5,0.3 -0.7,0.3 z"
             fill="#ffffff"
             id="path43" />
          <path
             d="m 199.5,193.4 c -0.3,0 -0.5,-0.1 -0.7,-0.3 l -5.7,-5.7 c -0.4,-0.4 -0.4,-1.1 0,-1.5 0.4,-0.4 1.1,-0.4 1.5,0 l 5.7,5.7 c 0.4,0.4 0.4,1.1 0,1.5 -0.2,0.2 -0.5,0.3 -0.7,0.3 z"
             fill="#ffffff"
             id="path45" />
        </g>
        <g
           id="g53">
          <path
             d="m 71.1,84.6 c -0.2,0 -0.4,0 -0.6,-0.2 l -6.6,-4.6 c -0.5,-0.3 -0.6,-1 -0.3,-1.5 0.3,-0.5 1,-0.6 1.5,-0.3 l 6.6,4.6 c 0.5,0.3 0.6,1 0.3,1.5 -0.2,0.3 -0.5,0.4 -0.9,0.4 z"
             fill="#ffffff"
             id="path49" />
          <path
             d="m 209.5,181.5 c -0.2,0 -0.4,0 -0.6,-0.2 l -6.6,-4.6 c -0.5,-0.3 -0.6,-1 -0.3,-1.5 0.3,-0.5 1,-0.6 1.5,-0.3 l 6.6,4.6 c 0.5,0.3 0.6,1 0.3,1.5 -0.2,0.3 -0.5,0.4 -0.9,0.4 z"
             fill="#ffffff"
             id="path51" />
        </g>
        <g
           id="g59">
          <path
             d="m 64.1,96.8 c -0.1,0 -0.3,0 -0.4,0 l -7.3,-3.4 c -0.5,-0.2 -0.8,-0.9 -0.5,-1.4 0.2,-0.5 0.9,-0.8 1.4,-0.5 l 7.3,3.4 c 0.5,0.2 0.8,0.9 0.5,1.4 -0.2,0.4 -0.6,0.6 -1,0.6 z"
             fill="#ffffff"
             id="path55" />
          <path
             d="m 217.2,168.2 c -0.1,0 -0.3,0 -0.4,0 l -7.3,-3.4 c -0.5,-0.2 -0.8,-0.9 -0.5,-1.4 0.2,-0.5 0.9,-0.8 1.4,-0.5 l 7.3,3.4 c 0.5,0.2 0.8,0.9 0.5,1.4 -0.2,0.4 -0.6,0.6 -1,0.6 z"
             fill="#ffffff"
             id="path57" />
        </g>
        <g
           id="g65">
          <path
             d="m 59.3,109.9 c 0,0 -0.2,0 -0.3,0 l -7.8,-2.1 c -0.6,-0.2 -0.9,-0.7 -0.7,-1.3 0.2,-0.6 0.7,-0.9 1.3,-0.7 l 7.8,2.1 c 0.6,0.2 0.9,0.7 0.7,1.3 -0.1,0.5 -0.6,0.8 -1,0.8 z"
             fill="#ffffff"
             id="path61" />
          <path
             d="m 222.4,153.7 c 0,0 -0.2,0 -0.3,0 l -7.8,-2.1 c -0.6,-0.2 -0.9,-0.7 -0.7,-1.3 0.2,-0.6 0.7,-0.9 1.3,-0.7 l 7.8,2.1 c 0.6,0.2 0.9,0.7 0.7,1.3 -0.1,0.5 -0.6,0.8 -1,0.8 z"
             fill="#ffffff"
             id="path63" />
        </g>
        <g
           id="g71">
          <path
             d="m 56.8,123.8 c 0,0 0,0 0,0 l -8,-0.7 c -0.6,0 -1,-0.6 -1,-1.1 0,-0.6 0.5,-1 1.1,-1 l 8,0.7 c 0.6,0 1,0.6 1,1.1 0,0.5 -0.5,1 -1,1 z"
             fill="#ffffff"
             id="path67" />
          <path
             d="m 225.1,138.5 c 0,0 0,0 0,0 l -8,-0.7 c -0.6,0 -1,-0.6 -1,-1.1 0,-0.6 0.6,-1 1.1,-1 l 8,0.7 c 0.6,0 1,0.6 1,1.1 0,0.5 -0.5,1 -1,1 z"
             fill="#ffffff"
             id="path69" />
        </g>
        <g
           id="g77">
          <path
             d="m 48.8,138.5 c -0.5,0 -1,-0.4 -1,-1 0,-0.6 0.4,-1.1 1,-1.1 l 8,-0.7 c 0.6,0 1.1,0.4 1.1,1 0,0.6 -0.4,1.1 -1,1.1 l -8,0.7 c 0,0 0,0 0,0 z"
             fill="#ffffff"
             id="path73" />
          <path
             d="m 217.1,123.8 c -0.5,0 -1,-0.4 -1,-1 0,-0.6 0.4,-1.1 1,-1.1 l 8,-0.7 c 0.6,0 1.1,0.4 1.1,1 0,0.6 -0.4,1.1 -1,1.1 l -8,0.7 c 0,0 0,0 0,0 z"
             fill="#ffffff"
             id="path75" />
        </g>
        <g
           id="g83">
          <path
             d="m 51.5,153.7 c -0.5,0 -0.9,-0.3 -1,-0.8 -0.2,-0.6 0.2,-1.1 0.7,-1.3 l 7.8,-2.1 c 0.6,-0.1 1.1,0.2 1.3,0.7 0.1,0.6 -0.2,1.1 -0.7,1.3 l -7.8,2.1 c 0,0 -0.2,0 -0.3,0 z"
             fill="#ffffff"
             id="path79" />
          <path
             d="m 214.6,109.9 c -0.5,0 -0.9,-0.3 -1,-0.8 -0.1,-0.6 0.2,-1.1 0.7,-1.3 l 7.8,-2.1 c 0.6,-0.1 1.1,0.2 1.3,0.7 0.1,0.6 -0.2,1.1 -0.7,1.3 l -7.8,2.1 c 0,0 -0.2,0 -0.3,0 z"
             fill="#ffffff"
             id="path81" />
        </g>
        <g
           id="g89">
          <path
             d="m 56.7,168.2 c -0.4,0 -0.8,-0.2 -1,-0.6 -0.2,-0.5 0,-1.1 0.5,-1.4 l 7.3,-3.4 c 0.5,-0.2 1.1,0 1.4,0.5 0.2,0.5 0,1.1 -0.5,1.4 l -7.3,3.4 c -0.1,0 -0.3,0 -0.4,0 z"
             fill="#ffffff"
             id="path85" />
          <path
             d="m 209.8,96.8 c -0.4,0 -0.8,-0.2 -1,-0.6 -0.2,-0.5 0,-1.2 0.5,-1.4 l 7.3,-3.4 c 0.5,-0.2 1.2,0 1.4,0.5 0.2,0.5 0,1.2 -0.5,1.4 l -7.3,3.4 c -0.1,0 -0.3,0 -0.4,0 z"
             fill="#ffffff"
             id="path87" />
        </g>
        <g
           id="g95">
          <path
             d="m 64.4,181.5 c -0.3,0 -0.7,-0.2 -0.9,-0.4 -0.3,-0.5 -0.2,-1.1 0.3,-1.5 l 6.6,-4.6 c 0.5,-0.3 1.1,-0.2 1.5,0.3 0.3,0.5 0.2,1.1 -0.3,1.5 l -6.6,4.6 c -0.2,0.1 -0.4,0.2 -0.6,0.2 z"
             fill="#ffffff"
             id="path91" />
          <path
             d="m 202.8,84.6 c -0.3,0 -0.7,-0.2 -0.9,-0.4 -0.3,-0.5 -0.2,-1.1 0.3,-1.5 l 6.6,-4.6 c 0.5,-0.3 1.1,-0.2 1.5,0.3 0.3,0.5 0.2,1.1 -0.3,1.5 l -6.6,4.6 c -0.2,0.1 -0.4,0.2 -0.6,0.2 z"
             fill="#ffffff"
             id="path93" />
        </g>
        <g
           id="g101">
          <path
             d="m 74.4,193.4 c -0.3,0 -0.5,-0.1 -0.7,-0.3 -0.4,-0.4 -0.4,-1.1 0,-1.5 l 5.7,-5.7 c 0.4,-0.4 1.1,-0.4 1.5,0 0.4,0.4 0.4,1.1 0,1.5 l -5.7,5.7 c -0.2,0.2 -0.5,0.3 -0.7,0.3 z"
             fill="#ffffff"
             id="path97" />
          <path
             d="m 193.8,73.9 c -0.3,0 -0.5,-0.1 -0.7,-0.3 -0.4,-0.4 -0.4,-1.1 0,-1.5 l 5.7,-5.7 c 0.4,-0.4 1.1,-0.4 1.5,0 0.4,0.4 0.4,1.1 0,1.5 l -5.7,5.7 c -0.2,0.2 -0.5,0.3 -0.7,0.3 z"
             fill="#ffffff"
             id="path99" />
        </g>
        <g
           id="g107">
          <path
             d="m 86.2,203.3 c -0.2,0 -0.4,0 -0.6,-0.2 -0.5,-0.3 -0.6,-1 -0.3,-1.5 l 4.6,-6.6 c 0.3,-0.5 1,-0.6 1.5,-0.3 0.5,0.3 0.6,1 0.3,1.5 l -4.6,6.6 c -0.2,0.3 -0.5,0.4 -0.9,0.4 z"
             fill="#ffffff"
             id="path103" />
          <path
             d="m 183.1,64.9 c -0.2,0 -0.4,0 -0.6,-0.2 -0.5,-0.3 -0.6,-1 -0.3,-1.5 l 4.6,-6.6 c 0.3,-0.5 1,-0.6 1.5,-0.3 0.5,0.3 0.6,1 0.3,1.5 l -4.6,6.6 c -0.2,0.3 -0.5,0.4 -0.9,0.4 z"
             fill="#ffffff"
             id="path105" />
        </g>
        <g
           id="g113">
          <path
             d="m 99.5,211 c -0.1,0 -0.3,0 -0.4,0 -0.5,-0.2 -0.8,-0.9 -0.5,-1.4 l 3.4,-7.3 c 0.2,-0.5 0.9,-0.8 1.4,-0.5 0.5,0.2 0.8,0.9 0.5,1.4 l -3.4,7.3 c -0.2,0.4 -0.6,0.6 -1,0.6 z"
             fill="#ffffff"
             id="path109" />
          <path
             d="m 170.9,57.9 c -0.1,0 -0.3,0 -0.4,0 C 170,57.7 169.7,57 170,56.5 l 3.4,-7.3 c 0.2,-0.5 0.9,-0.8 1.4,-0.5 0.5,0.2 0.8,0.9 0.5,1.4 l -3.4,7.3 c -0.2,0.4 -0.6,0.6 -1,0.6 z"
             fill="#ffffff"
             id="path111" />
        </g>
        <g
           id="g119">
          <path
             d="m 99.5,211 c -0.1,0 -0.3,0 -0.4,0 -0.5,-0.2 -0.8,-0.9 -0.5,-1.4 l 3.4,-7.3 c 0.2,-0.5 0.9,-0.8 1.4,-0.5 0.5,0.2 0.8,0.9 0.5,1.4 l -3.4,7.3 c -0.2,0.4 -0.6,0.6 -1,0.6 z"
             fill="#ffffff"
             id="path115" />
          <path
             d="m 170.9,57.9 c -0.1,0 -0.3,0 -0.4,0 C 170,57.7 169.7,57 170,56.5 l 3.4,-7.3 c 0.2,-0.5 0.9,-0.8 1.4,-0.5 0.5,0.2 0.8,0.9 0.5,1.4 l -3.4,7.3 c -0.2,0.4 -0.6,0.6 -1,0.6 z"
             fill="#ffffff"
             id="path117" />
        </g>
        <g
           id="g125">
          <path
             d="m 114,216.3 c 0,0 -0.2,0 -0.3,0 -0.6,-0.2 -0.9,-0.7 -0.7,-1.3 l 2.1,-7.8 c 0.2,-0.6 0.7,-0.9 1.3,-0.7 0.6,0.2 0.9,0.7 0.7,1.3 l -2.1,7.8 c -0.1,0.5 -0.6,0.8 -1,0.8 z"
             fill="#ffffff"
             id="path121" />
          <path
             d="m 157.8,53.1 c 0,0 -0.2,0 -0.3,0 -0.6,-0.2 -0.9,-0.7 -0.7,-1.3 l 2.1,-7.8 c 0.2,-0.6 0.7,-0.9 1.3,-0.7 0.6,0.2 0.9,0.7 0.7,1.3 l -2.1,7.8 c -0.1,0.5 -0.6,0.8 -1,0.8 z"
             fill="#ffffff"
             id="path123" />
        </g>
        <g
           id="g131">
          <path
             d="m 129.2,218.9 c 0,0 0,0 0,0 -0.6,0 -1,-0.6 -1,-1.1 l 0.7,-8 c 0,-0.6 0.5,-1 1.1,-1 0.6,0 1,0.6 1,1.1 l -0.7,8 c 0,0.5 -0.5,1 -1,1 z"
             fill="#ffffff"
             id="path127" />
          <path
             d="m 144,50.6 c 0,0 0,0 0,0 -0.6,0 -1,-0.6 -1,-1.1 l 0.7,-8 c 0,-0.6 0.5,-1 1.1,-1 0.6,0 1,0.6 1,1.1 l -0.7,8 c 0,0.5 -0.5,1 -1,1 z"
             fill="#ffffff"
             id="path129" />
        </g>
        <g
           id="g137">
          <path
             d="m 124.4,59.8 c -0.5,0 -0.9,-0.4 -1,-0.9 l -2.9,-16.2 c -0.1,-0.6 0.3,-1.1 0.9,-1.2 0.6,-0.1 1.1,0.3 1.2,0.9 l 2.9,16.2 c 0.1,0.6 -0.3,1.1 -0.9,1.2 0,0 -0.1,0 -0.2,0 z"
             fill="#ffffff"
             id="path133" />
          <path
             d="m 152.3,217.9 c -0.5,0 -0.9,-0.4 -1,-0.9 l -2.9,-16.2 c -0.1,-0.6 0.3,-1.1 0.9,-1.2 0.6,-0.1 1.1,0.3 1.2,0.9 l 2.9,16.2 c 0.1,0.6 -0.3,1.1 -0.9,1.2 0,0 -0.1,0 -0.2,0 z"
             fill="#ffffff"
             id="path135" />
        </g>
        <g
           id="g143">
          <path
             d="m 112.3,63.1 c -0.4,0 -0.8,-0.3 -1,-0.7 l -5.6,-15.5 c -0.2,-0.5 0,-1.1 0.6,-1.3 0.5,-0.2 1.1,0 1.3,0.6 l 5.6,15.5 c 0.2,0.5 0,1.1 -0.6,1.3 -0.1,0 -0.2,0 -0.4,0 z"
             fill="#ffffff"
             id="path139" />
          <path
             d="m 167.2,213.9 c -0.4,0 -0.8,-0.3 -1,-0.7 l -5.6,-15.5 c -0.2,-0.5 0,-1.1 0.6,-1.3 0.6,-0.2 1.1,0 1.3,0.6 l 5.6,15.5 c 0.2,0.5 0,1.1 -0.6,1.3 -0.1,0 -0.2,0 -0.4,0 z"
             fill="#ffffff"
             id="path141" />
        </g>
        <g
           id="g149">
          <path
             d="m 100.9,68.4 c -0.4,0 -0.7,-0.2 -0.9,-0.5 L 91.8,53.6 c -0.3,-0.5 -0.1,-1.1 0.4,-1.4 0.5,-0.3 1.1,-0.1 1.4,0.4 l 8.2,14.3 c 0.3,0.5 0.1,1.1 -0.4,1.4 -0.2,0 -0.3,0.1 -0.5,0.1 z"
             fill="#ffffff"
             id="path145" />
          <path
             d="m 181.2,207.4 c -0.4,0 -0.7,-0.2 -0.9,-0.5 l -8.2,-14.3 c -0.3,-0.5 -0.1,-1.1 0.4,-1.4 0.5,-0.3 1.1,-0.1 1.4,0.4 l 8.2,14.3 c 0.3,0.5 0.1,1.1 -0.4,1.4 -0.2,0 -0.3,0.1 -0.5,0.1 z"
             fill="#ffffff"
             id="path147" />
        </g>
        <g
           id="g155">
          <path
             d="m 90.7,75.6 c -0.3,0 -0.6,-0.1 -0.8,-0.4 L 79.3,62.6 c -0.4,-0.4 -0.3,-1.1 0.1,-1.5 0.4,-0.4 1.1,-0.3 1.5,0.1 l 10.6,12.6 c 0.4,0.4 0.3,1.1 -0.1,1.5 -0.2,0.2 -0.4,0.2 -0.7,0.2 z"
             fill="#ffffff"
             id="path151" />
          <path
             d="m 193.8,198.6 c -0.3,0 -0.6,-0.1 -0.8,-0.4 l -10.6,-12.6 c -0.4,-0.4 -0.3,-1.1 0.1,-1.5 0.4,-0.4 1.1,-0.3 1.5,0.1 l 10.6,12.6 c 0.4,0.4 0.3,1.1 -0.1,1.5 -0.2,0.2 -0.4,0.2 -0.7,0.2 z"
             fill="#ffffff"
             id="path153" />
        </g>
        <g
           id="g161">
          <path
             d="m 81.8,84.5 c -0.2,0 -0.5,0 -0.7,-0.2 L 68.5,73.7 c -0.4,-0.4 -0.5,-1 -0.1,-1.5 0.4,-0.4 1,-0.5 1.5,-0.1 l 12.6,10.6 c 0.4,0.4 0.5,1 0.1,1.5 -0.2,0.2 -0.5,0.4 -0.8,0.4 z"
             fill="#ffffff"
             id="path157" />
          <path
             d="m 204.8,187.7 c -0.2,0 -0.5,0 -0.7,-0.2 l -12.6,-10.6 c -0.4,-0.4 -0.5,-1 -0.1,-1.5 0.4,-0.4 1,-0.5 1.5,-0.1 l 12.6,10.6 c 0.4,0.4 0.5,1 0.1,1.5 -0.2,0.2 -0.5,0.4 -0.8,0.4 z"
             fill="#ffffff"
             id="path159" />
        </g>
        <g
           id="g167">
          <path
             d="m 74.6,94.7 c -0.2,0 -0.4,0 -0.5,-0.1 L 59.8,86.4 c -0.5,-0.3 -0.7,-0.9 -0.4,-1.4 0.3,-0.5 0.9,-0.7 1.4,-0.4 l 14.3,8.2 c 0.5,0.3 0.7,0.9 0.4,1.4 -0.2,0.3 -0.5,0.5 -0.9,0.5 z"
             fill="#ffffff"
             id="path163" />
          <path
             d="m 213.6,175 c -0.2,0 -0.4,0 -0.5,-0.1 l -14.3,-8.2 c -0.5,-0.3 -0.7,-0.9 -0.4,-1.4 0.3,-0.5 0.9,-0.7 1.4,-0.4 l 14.3,8.2 c 0.5,0.3 0.7,0.9 0.4,1.4 -0.2,0.3 -0.5,0.5 -0.9,0.5 z"
             fill="#ffffff"
             id="path165" />
        </g>
        <g
           id="g173">
          <path
             d="m 69.3,106.1 c -0.1,0 -0.2,0 -0.4,0 l -15.5,-5.6 c -0.5,-0.2 -0.8,-0.8 -0.6,-1.3 0.2,-0.5 0.8,-0.8 1.3,-0.6 l 15.5,5.6 c 0.5,0.2 0.8,0.8 0.6,1.3 -0.2,0.4 -0.6,0.7 -1,0.7 z"
             fill="#ffffff"
             id="path169" />
          <path
             d="m 220.1,161 c -0.1,0 -0.2,0 -0.4,0 l -15.5,-5.6 c -0.5,-0.2 -0.8,-0.8 -0.6,-1.3 0.2,-0.5 0.8,-0.8 1.3,-0.6 l 15.5,5.6 c 0.5,0.2 0.8,0.8 0.6,1.3 -0.2,0.4 -0.6,0.7 -1,0.7 z"
             fill="#ffffff"
             id="path171" />
        </g>
        <g
           id="g179">
          <path
             d="m 66,118.3 c 0,0 -0.1,0 -0.2,0 l -16.2,-2.9 c -0.6,-0.1 -1,-0.6 -0.9,-1.2 0.1,-0.6 0.7,-1 1.2,-0.9 l 16.2,2.9 c 0.6,0.1 1,0.6 0.9,1.2 0,0.5 -0.5,0.9 -1,0.9 z"
             fill="#ffffff"
             id="path175" />
          <path
             d="m 224.1,146.1 c 0,0 -0.1,0 -0.2,0 l -16.2,-2.9 c -0.6,-0.1 -1,-0.6 -0.9,-1.2 0.1,-0.6 0.7,-1 1.2,-0.9 l 16.2,2.9 c 0.6,0.1 1,0.6 0.9,1.2 0,0.5 -0.5,0.9 -1,0.9 z"
             fill="#ffffff"
             id="path177" />
        </g>
        <g
           id="g185">
          <path
             d="M 64.9,130.8 H 48.4 c -0.6,0 -1.1,-0.5 -1.1,-1.1 0,-0.6 0.5,-1.1 1.1,-1.1 h 16.5 c 0.6,0 1.1,0.5 1.1,1.1 0,0.6 -0.5,1.1 -1.1,1.1 z"
             fill="#ffffff"
             id="path181" />
          <path
             d="M 225.5,130.8 H 209 c -0.6,0 -1.1,-0.5 -1.1,-1.1 0,-0.6 0.5,-1.1 1.1,-1.1 h 16.5 c 0.6,0 1.1,0.5 1.1,1.1 0,0.6 -0.5,1.1 -1.1,1.1 z"
             fill="#ffffff"
             id="path183" />
        </g>
        <g
           id="g191">
          <path
             d="m 49.8,146.1 c -0.5,0 -0.9,-0.4 -1,-0.9 -0.1,-0.6 0.3,-1.1 0.9,-1.2 l 16.2,-2.9 c 0.6,-0.1 1.1,0.3 1.2,0.9 0.1,0.6 -0.3,1.1 -0.9,1.2 L 50,146.1 c 0,0 -0.1,0 -0.2,0 z"
             fill="#ffffff"
             id="path187" />
          <path
             d="m 207.9,118.3 c -0.5,0 -0.9,-0.4 -1,-0.9 -0.1,-0.6 0.3,-1.1 0.9,-1.2 l 16.2,-2.9 c 0.6,-0.1 1.1,0.3 1.2,0.9 0.1,0.6 -0.3,1.1 -0.9,1.2 l -16.2,2.9 c 0,0 -0.1,0 -0.2,0 z"
             fill="#ffffff"
             id="path189" />
        </g>
        <g
           id="g197">
          <path
             d="m 53.8,161 c -0.4,0 -0.8,-0.3 -1,-0.7 -0.2,-0.5 0,-1.1 0.6,-1.3 l 15.5,-5.6 c 0.5,-0.2 1.1,0 1.3,0.6 0.2,0.5 0,1.1 -0.6,1.3 l -15.5,5.6 c -0.1,0 -0.2,0 -0.4,0 z"
             fill="#ffffff"
             id="path193" />
          <path
             d="m 204.6,106.1 c -0.4,0 -0.8,-0.3 -1,-0.7 -0.2,-0.5 0,-1.1 0.6,-1.3 l 15.5,-5.6 c 0.6,-0.2 1.1,0 1.3,0.6 0.2,0.5 0,1.1 -0.6,1.3 l -15.5,5.6 c -0.1,0 -0.2,0 -0.4,0 z"
             fill="#ffffff"
             id="path195" />
        </g>
        <g
           id="g203">
          <path
             d="m 60.3,175 c -0.4,0 -0.7,-0.2 -0.9,-0.5 -0.3,-0.5 -0.1,-1.1 0.4,-1.4 l 14.3,-8.2 c 0.5,-0.3 1.1,-0.1 1.4,0.4 0.3,0.5 0.1,1.1 -0.4,1.4 l -14.3,8.2 c -0.2,0 -0.3,0.1 -0.5,0.1 z"
             fill="#ffffff"
             id="path199" />
          <path
             d="m 199.3,94.7 c -0.4,0 -0.7,-0.2 -0.9,-0.5 -0.3,-0.5 -0.1,-1.1 0.4,-1.4 l 14.3,-8.2 c 0.5,-0.3 1.1,-0.1 1.4,0.4 0.3,0.5 0.1,1.1 -0.4,1.4 l -14.3,8.2 c -0.2,0 -0.3,0.1 -0.5,0.1 z"
             fill="#ffffff"
             id="path201" />
        </g>
        <g
           id="g209">
          <path
             d="m 69.1,187.7 c -0.3,0 -0.6,-0.1 -0.8,-0.4 -0.4,-0.4 -0.3,-1.1 0.1,-1.5 L 81,175.2 c 0.4,-0.4 1.1,-0.3 1.5,0.1 0.4,0.4 0.3,1.1 -0.1,1.5 l -12.6,10.6 c -0.2,0.2 -0.4,0.2 -0.7,0.2 z"
             fill="#ffffff"
             id="path205" />
          <path
             d="m 192.1,84.5 c -0.3,0 -0.6,-0.1 -0.8,-0.4 -0.4,-0.4 -0.3,-1.1 0.1,-1.5 L 204,72 c 0.4,-0.4 1.1,-0.3 1.5,0.1 0.4,0.4 0.3,1.1 -0.1,1.5 l -12.6,10.6 c -0.2,0.2 -0.4,0.2 -0.7,0.2 z"
             fill="#ffffff"
             id="path207" />
        </g>
        <g
           id="g215">
          <path
             d="m 80.1,198.6 c -0.2,0 -0.5,0 -0.7,-0.2 -0.4,-0.4 -0.5,-1 -0.1,-1.5 l 10.6,-12.6 c 0.4,-0.4 1,-0.5 1.5,-0.1 0.4,0.4 0.5,1 0.1,1.5 l -10.6,12.6 c -0.2,0.2 -0.5,0.4 -0.8,0.4 z"
             fill="#ffffff"
             id="path211" />
          <path
             d="m 183.2,75.6 c -0.2,0 -0.5,0 -0.7,-0.2 -0.4,-0.4 -0.5,-1 -0.1,-1.5 L 193,61.3 c 0.4,-0.4 1,-0.5 1.5,-0.1 0.4,0.4 0.5,1 0.1,1.5 L 184,75.3 c -0.2,0.2 -0.5,0.4 -0.8,0.4 z"
             fill="#ffffff"
             id="path213" />
        </g>
        <g
           id="g221">
          <path
             d="m 92.7,207.4 c -0.2,0 -0.4,0 -0.5,-0.1 -0.5,-0.3 -0.7,-0.9 -0.4,-1.4 l 8.2,-14.3 c 0.3,-0.5 0.9,-0.7 1.4,-0.4 0.5,0.3 0.7,0.9 0.4,1.4 l -8.2,14.3 c -0.2,0.3 -0.5,0.5 -0.9,0.5 z"
             fill="#ffffff"
             id="path217" />
          <path
             d="m 173,68.4 c -0.2,0 -0.4,0 -0.5,-0.1 -0.5,-0.3 -0.7,-0.9 -0.4,-1.4 l 8.2,-14.3 c 0.3,-0.5 0.9,-0.7 1.4,-0.4 0.5,0.3 0.7,0.9 0.4,1.4 l -8.2,14.3 c -0.2,0.3 -0.5,0.5 -0.9,0.5 z"
             fill="#ffffff"
             id="path219" />
        </g>
        <g
           id="g227">
          <path
             d="m 106.7,213.9 c -0.1,0 -0.2,0 -0.4,0 -0.5,-0.2 -0.8,-0.8 -0.6,-1.3 l 5.6,-15.5 c 0.2,-0.5 0.8,-0.8 1.3,-0.6 0.5,0.2 0.8,0.8 0.6,1.3 l -5.6,15.5 c -0.2,0.4 -0.6,0.7 -1,0.7 z"
             fill="#ffffff"
             id="path223" />
          <path
             d="m 161.6,63.1 c -0.1,0 -0.2,0 -0.4,0 -0.5,-0.2 -0.8,-0.8 -0.6,-1.3 l 5.6,-15.5 c 0.2,-0.5 0.8,-0.8 1.3,-0.6 0.5,0.2 0.8,0.8 0.6,1.3 l -5.6,15.5 c -0.2,0.4 -0.6,0.7 -1,0.7 z"
             fill="#ffffff"
             id="path225" />
        </g>
        <g
           id="g233">
          <path
             d="m 121.6,217.9 c 0,0 -0.1,0 -0.2,0 -0.6,-0.1 -1,-0.6 -0.9,-1.2 l 2.9,-16.2 c 0.1,-0.6 0.6,-1 1.2,-0.9 0.6,0.1 1,0.6 0.9,1.2 l -2.9,16.2 c 0,0.5 -0.5,0.9 -1,0.9 z"
             fill="#ffffff"
             id="path229" />
          <path
             d="m 149.5,59.8 c 0,0 -0.1,0 -0.2,0 -0.6,-0.1 -1,-0.6 -0.9,-1.2 l 2.9,-16.2 c 0.1,-0.6 0.7,-1 1.2,-0.9 0.6,0.1 1,0.6 0.9,1.2 l -2.9,16.2 c 0,0.5 -0.5,0.9 -1,0.9 z"
             fill="#ffffff"
             id="path231" />
        </g>
      </g>
      <g
         id="g241">
        <path
           d="m 205.6,71.4 -75.2,50.6 13,15.5 62.8,-65.2 c 0.5,-0.5 -0.2,-1.2 -0.7,-0.8 z"
           fill="#ef4139"
           id="path237" />
        <path
           d="m 68.3,188 75.2,-50.6 -13,-15.5 -62.8,65.2 c -0.5,0.5 0.2,1.2 0.7,0.8 z"
           fill="#ffffff"
           id="path239" />
      </g>
    </g>
  </g>
</svg>
