<?xml version="1.0" encoding="UTF-8" standalone="no"?>
<svg
   id="uuid-8e5ded89-0097-4e06-93da-42e3e657701e"
   viewBox="0 0 220.59073 220.67427"
   version="1.1"
   width="220.59073"
   height="220.67427"
   xmlns="http://www.w3.org/2000/svg"
   xmlns:svg="http://www.w3.org/2000/svg">
  <defs
     id="defs7">
    <linearGradient
       id="uuid-9db915fe-7fd5-43da-ac64-7c58b3c2c09a"
       x1="200.7"
       y1="38.5"
       x2="44.799999"
       y2="194.39999"
       gradientUnits="userSpaceOnUse"
       gradientTransform="translate(-26.829412,-20.474492)">
      <stop
         offset="0"
         stop-color="#75c7a7"
         id="stop2" />
      <stop
         offset="1"
         stop-color="#2e3075"
         id="stop4" />
    </linearGradient>
  </defs>
  <path
     d="m 220.27059,118.12551 c -0.2,3.9 -0.6,8 -1.5,11.8 -0.3,3.6 -1.4,7.2 -2.4,10.7 -1.1,4.3 -2.8,8.5 -4.4,12.6 -1.5,3.5 -3.2,6.8 -4.9,10.2 -1.7,3 -3.5,5.9 -5.4,8.7 -2.1,3.1 -4.4,6.1 -6.7,8.9 -2.5,2.9 -5,5.8 -7.8,8.4 -3.5,3.5 -7.3,6.7 -11.3,9.6 -3.4,2.5 -7,4.9 -10.7,7 -4.2,2.5 -8.5,4.5 -13,6.4 -4.7,1.9 -9.6,3.5 -14.5,4.8 -4.3,1 -8.6,2 -13,2.4 -8.2,1.3 -16.5,1.3 -24.700002,0.5 -7.4,-0.6 -14.8,-2.2 -21.9,-4.3 v 0 c -34.3,-10.1 -62.5,-38.4 -72.9999998,-72.6 -2.3,-7.4 -3.9,-15 -4.49999996,-22.7 -0.8,-7.5 -0.4,-15 -0.5,-22.500002 0,-6 0,-12 0,-18 0,-6.2 0,-12.3 0,-18.5 0,-5.3 0,-10.6 0,-15.9 0,-5.3 0,-10.6 0,-15.9 0,-5.3 0,-10.5 0,-15.8 -0.4,-3.9999997 0.9,-8.0999997 3.89999996,-10.7999997 3.2,-2.89999997 7.7999998,-3.89999997 11.8999998,-2.49999997 2.4,0.79999997 4.6,2.29999997 6.7,3.69999997 7.9,5.2 15.6,10.7999997 23.1,16.4999997 0.8,-0.4 1.6,-0.9 2.4,-1.5 3,-2.1 6.2,-4.1 9.4,-5.8 3.3,-1.8 6.7,-3.4 10.1,-4.8999997 3.6,-1.5 7.3,-2.8 11.1,-4 4,-1.1 8,-2.2 12.1,-2.8 4.5,-0.89999997 9.1,-1.39999997 13.600002,-1.59999997 5.6,-0.4 11.3,-0.2 16.9,0.4 4.2,0.39999997 8.5,0.99999997 12.6,1.99999997 28.4,6 53.9,23.8999997 69.4,48.2999997 6.9,10.8 11.9,22.7 14.7,35.2 1,4.6 1.9,9.3 2.1,14.100002 0.6,5.9 0.7,11.9 0.2,17.8 z"
     fill="url(#uuid-9db915fe-7fd5-43da-ac64-7c58b3c2c09a)"
     id="path9"
     style="fill:url(#uuid-9db915fe-7fd5-43da-ac64-7c58b3c2c09a)" />
  <path
     d="m 152.97059,57.625508 c 4.5,-1.3 9.3,-1.2 13.8,0.3 5.7,2.2 10.2,6.6 12.7,12.1 1.8,5 2.1,10.7 0.2,15.8 -1.3,3.6 -3.7,6.6 -6.5,9.2 -2.5,2.4 -4.9,4.9 -7.3,7.300002 -2.6,2.6 -5.2,5.2 -7.8,7.8 -2.5,2.5 -5,5 -7.5,7.5 -2.7,2.7 -5.4,5.4 -8.2,8.2 -3.1,3.1 -6.2,6.2 -9.3,9.3 -2.9,2.9 -5.9,5.8 -8.8,8.8 -2.9,3 -5.9,5.9 -8.8,8.8 -2.7,2.6 -5.2,5.5 -8.2,7.7 -3.8,2.4 -8.300002,3.6 -12.800002,3.5 -5.2,-0.3 -10.3,-2.4 -14,-6.1 -11.6,-11.5 -23.1,-23.1 -34.6,-34.6 -2.8,-2.8 -4.7,-6.4 -5.7,-10.2 -1,-5.3 -0.4,-10.9 2.3,-15.600002 2.1,-3.6 5.2,-6.5 8.9,-8.6 4,-1.9 8.4,-2.7 12.8,-2.1 4.7,0.7 9.3,2.9 12.6,6.3 6.3,6.3 12.5,12.600002 18.8,18.800002 1.9,-1.8 3.7,-3.7 5.600002,-5.6 2.6,-2.5 5.2,-5.1 7.8,-7.800002 2.5,-2.4 4.9,-4.8 7.3,-7.3 1.7,-1.5 3.3,-3.2 4.9,-4.8 2.6,-2.6 5.2,-5.2 7.8,-7.8 2.5,-2.4 4.9,-4.8 7.3,-7.3 2.6,-2.5 5.1,-5.1 7.7,-7.7 2.6,-2.6 5.8,-4.7 9.3,-5.8 v 0 z"
     fill="#ffffff"
     id="path11" />
</svg>
