<?xml version="1.0" encoding="UTF-8" standalone="no"?>
<svg
   id="uuid-25bbf5e1-57a7-46a5-9f19-0d18702980c7"
   viewBox="0 0 219.10001 219.10001"
   version="1.1"
   width="219.10001"
   height="219.10001"
   xmlns="http://www.w3.org/2000/svg"
   xmlns:svg="http://www.w3.org/2000/svg">
  <defs
     id="defs5">
    <clipPath
       id="uuid-7deb35ed-7570-4acf-bb42-5b3778d3045e">
      <rect
         x="376.10001"
         y="22.299999"
         width="219.10001"
         height="219.10001"
         rx="63.400002"
         ry="63.400002"
         fill="none"
         id="rect2" />
    </clipPath>
  </defs>
  <g
     clip-path="url(#uuid-7deb35ed-7570-4acf-bb42-5b3778d3045e)"
     id="g23"
     transform="translate(-376.10001,-22.299999)">
    <g
       id="g21">
      <path
         d="m 355.5,0.1 c 83.5,0 166.9,0 250.4,-0.1 4.2,0 5,0.8 5,5 -0.2,81.8 -0.2,163.7 0,245.5 0,4.2 -0.8,5 -5,5 -81.8,-0.2 -163.7,-0.2 -245.5,0 -4.2,0 -5,-0.8 -5,-5 0.2,-83.5 0.1,-166.9 0.1,-250.4 z m 244.3,128.8 c 0,-23.1 -0.2,-46.2 0,-69.3 0,-9 -1.7,-17.3 -6.1,-25.2 -9.5,-17 -23.6,-26.9 -43.4,-27 -45.4,-0.2 -90.7,0.1 -136.1,-0.1 -24,-0.1 -47.6,23.2 -47.8,46.5 -0.4,49.8 -0.3,99.6 0,149.4 0,14.2 7.2,25.6 17.8,34.7 10.6,9.1 23.3,12.6 37.1,12.6 40.9,-0.1 81.8,0 122.7,0 8.9,0 17.5,-1.2 25.7,-4.9 16.6,-7.5 29.9,-25.8 29.9,-44.4 0,-24.1 0,-48.2 0,-72.3 z"
         fill="#fcfcfc"
         id="path7" />
      <path
         d="m 599.9,129 c 0,24.1 0,48.2 0,72.3 0,18.6 -13.3,36.9 -29.9,44.4 -8.2,3.7 -16.8,4.9 -25.7,4.9 -40.9,0 -81.8,0 -122.7,0 -13.9,0 -26.5,-3.5 -37.1,-12.6 -10.6,-9.1 -17.7,-20.5 -17.8,-34.7 -0.3,-49.8 -0.4,-99.6 0,-149.4 0.2,-23.3 23.8,-46.6 47.8,-46.5 45.4,0.3 90.7,0 136.1,0.1 19.8,0 33.9,10 43.4,27 4.4,7.9 6.2,16.2 6.1,25.2 -0.3,23.1 0,46.2 0,69.3 z m -116.5,6 c 0.9,1.3 1.7,2.6 2.7,3.8 4.2,5.6 12.2,8.3 18.6,6.2 9,-2.9 12.3,-7.7 12.7,-16.4 0.5,-10.4 -5.9,-14.8 -14.2,-18 0.3,-0.2 0.6,-0.6 0.9,-0.7 10.5,-3.2 14.6,-9.9 13.1,-21 -1,-7 -9.4,-13.4 -17.9,-13.4 -11.5,0 -23,0 -34.5,0.1 -7.6,0.1 -15.8,6.9 -16.7,13.4 -1.5,10.6 2.6,17.6 12.1,20.5 0.7,0.2 1.3,0.8 2,1.2 -11.7,4.1 -15,8.8 -14.2,20.7 0.5,8.5 7.2,11.5 13.5,14.6 -0.5,0.3 -1,0.8 -1.5,0.9 -9.4,3 -12.3,7.6 -12,18.6 0.2,6.8 6.3,13.4 14,15.4 6.2,1.6 14.2,-2.6 18.2,-9 5.1,-8.3 2.6,-17.2 2.9,-26 0.1,-3.7 0.3,-7.3 0.4,-11 z"
         fill="#100f1d"
         id="path9" />
      <path
         d="m 462.2,110.7 c -0.7,-0.4 -1.3,-1 -2,-1.2 -9.5,-2.9 -13.7,-9.9 -12.1,-20.5 0.9,-6.5 9.2,-13.3 16.7,-13.4 11.5,-0.2 23,-0.2 34.5,-0.1 8.5,0 16.9,6.4 17.9,13.4 1.6,11.1 -2.6,17.8 -13.1,21 -0.4,0.1 -0.6,0.5 -0.9,0.7 -2.5,0 -5,0.1 -7.6,0.2 -4.2,0 -8.4,0 -12.6,0.1 -7,0 -13.9,-0.1 -20.9,-0.2 z"
         fill="#f17263"
         id="path11" />
      <path
         d="m 462.2,110.7 c 7,0 13.9,0.1 20.9,0.2 0.1,3.6 0.2,7.1 0.3,10.7 0,4.5 0,8.9 0,13.4 -0.1,3.7 -0.3,7.3 -0.4,11 -7.2,0 -14.3,0 -21.5,0 -6.4,-3.2 -13,-6.1 -13.5,-14.6 -0.8,-11.9 2.5,-16.5 14.2,-20.7 z"
         fill="#8162aa"
         id="path13" />
      <path
         d="m 461.5,146 c 7.2,0 14.3,0 21.5,0 -0.3,8.7 2.2,17.7 -2.9,26 -3.9,6.4 -12,10.6 -18.2,9 -7.7,-1.9 -13.8,-8.6 -14,-15.4 -0.3,-11 2.7,-15.6 12,-18.6 0.6,-0.2 1,-0.6 1.5,-0.9 z"
         fill="#47b97f"
         id="path15" />
      <path
         d="m 483.4,135 c 0,-4.5 0,-8.9 0,-13.4 2.6,-5.3 7.2,-8.3 12.3,-10.8 2.5,0 5,-0.1 7.6,-0.2 8.2,3.2 14.7,7.6 14.2,18 -0.4,8.7 -3.7,13.5 -12.7,16.4 -6.4,2.1 -14.4,-0.5 -18.6,-6.2 -0.9,-1.2 -1.8,-2.6 -2.7,-3.8 z"
         fill="#44b7e8"
         id="path17" />
      <path
         d="m 495.6,110.8 c -5,2.5 -9.7,5.5 -12.3,10.8 -0.1,-3.6 -0.2,-7.1 -0.3,-10.7 4.2,0 8.4,0 12.6,-0.1 z"
         fill="#100f1d"
         id="path19" />
    </g>
  </g>
</svg>
