<?xml version="1.0" encoding="UTF-8" standalone="no"?>
<svg
        id="uuid-432a6c06-607c-43bf-93ac-97f1abf61703"
        viewBox="0 0 220.174 220.17399"
        version="1.1"
        width="220.174"
        height="220.174"
        xmlns="http://www.w3.org/2000/svg"
        xmlns:svg="http://www.w3.org/2000/svg">
    <defs
            id="defs9" />
    <rect
            x="0"
            y="0"
            width="220.174"
            height="220.174"
            rx="63.708"
            ry="63.708"
            fill="#ee2424"
            id="rect2" />
    <path
            d="m 185.912,72.384999 c -1.801,-6.739 -7.109,-12.047 -13.848,-13.849 -12.215,-3.273 -61.197,-3.273 -61.197,-3.273 0,0 -48.982,0 -61.197,3.273 -6.739,1.802 -12.047,7.109 -13.848,13.849 -3.273,12.215 -3.273,37.702001 -3.273,37.702001 0,0 0,25.486 3.273,37.702 1.801,6.739 7.109,12.047 13.848,13.849 12.215,3.273 61.197,3.273 61.197,3.273 0,0 48.982,0 61.197,-3.273 6.739,-1.802 12.047,-7.109 13.848,-13.849 3.273,-12.215 3.273,-37.702 3.273,-37.702 0,0 0,-25.486001 -3.273,-37.702001 z M 95.202,133.582 V 86.590999 L 135.896,110.087 Z"
            fill="#ffffff"
            id="path4" />
</svg>
