<?xml version="1.0" encoding="UTF-8" standalone="no"?>
<svg
   id="uuid-7b9a67a2-6951-4105-a26a-f812ae5d46a5"
   viewBox="0 0 219.13001 219.13"
   version="1.1"
   width="219.13"
   height="219.13"
   xmlns="http://www.w3.org/2000/svg"
   xmlns:svg="http://www.w3.org/2000/svg">
  <defs
     id="defs57" />
  <rect
     x="0"
     y="0"
     width="219.13"
     height="219.13"
     rx="63.405998"
     ry="63.405998"
     fill="#ffffff"
     id="rect2" />
  <g
     id="g52"
     transform="translate(-28.434999,-22.308001)">
    <path
       d="m 131.168,207.448 c -6.058,-0.299 -10.13,-4.882 -15.235,-7.241 -6.129,-2.832 -11.718,-6.829 -17.541,-10.323 0,-10e-4 0.312,-0.06 0.31,-0.059 10.598,-6.044 21.197,-12.087 31.797,-18.131 0.242,0.012 0.48,-0.015 0.713,-0.08 0.079,0.309 0.162,0.616 0.252,0.921 -0.099,11.637 -0.198,23.275 -0.297,34.912 z"
       fill="#7fb543"
       id="path4" />
    <path
       d="m 98.404,79.114 c 8.97,-5.242 17.904,-10.546 26.939,-15.672 1.773,-1.006 3.582,-2.501 5.952,-1.857 -0.073,11.867 -0.146,23.735 -0.218,35.603 -0.18,0.13 -0.379,0.173 -0.597,0.128 -10.679,-5.99 -21.358,-11.979 -32.036,-17.969 z"
       fill="#b7cc34"
       id="path6" />
    <path
       d="M 66.744,134.676 C 66.68,124.133 66.648,113.59 66.52,103.047 c -0.021,-1.736 0.663,-3.191 1.196,-4.734 3.599,1.973 7.357,3.709 10.764,5.972 6.245,4.147 13.313,6.971 19.049,11.914 -0.014,0.295 -0.062,0.585 -0.143,0.868 -4.276,2.327 -8.681,4.449 -12.795,7.032 -5.752,3.611 -12.214,6.068 -17.36,10.655 l -0.486,-0.079 z"
       fill="#e54f54"
       id="path8" />
    <path
       d="m 193.784,98.356 c 1.075,2.104 1.217,4.346 1.189,6.672 -0.115,9.672 -0.141,19.345 -0.2,29.018 -0.608,-0.221 -1.262,-0.361 -1.818,-0.674 -9.615,-5.428 -19.219,-10.877 -28.825,-16.321 -0.05,-0.362 -0.099,-0.723 -0.149,-1.085 9.589,-6.454 19.639,-12.129 29.803,-17.609 z"
       fill="#7a4788"
       id="path10" />
    <path
       d="m 66.744,134.676 c 0,0 0.486,0.079 0.487,0.079 10.03,5.763 19.797,11.988 30.174,17.14 0.036,0.395 0.072,0.79 0.108,1.185 -0.038,0.244 -0.074,0.489 -0.11,0.733 -9.892,5.612 -19.784,11.224 -29.676,16.837 -0.804,-1.824 -1.244,-3.675 -1.215,-5.726 0.146,-10.081 0.167,-20.165 0.232,-30.247 z"
       fill="#4e3a84"
       id="path12" />
    <path
       d="m 194.77,134.994 c 0.059,10.33 0.086,20.66 0.21,30.989 0.021,1.728 -0.665,3.175 -1.193,4.711 -3.602,-1.97 -7.361,-3.703 -10.772,-5.963 -6.253,-4.144 -13.306,-7.002 -19.069,-11.914 0.025,-0.293 0.083,-0.578 0.176,-0.856 10.216,-5.656 20.432,-11.311 30.648,-16.967 z"
       fill="#e54f54"
       id="path14" />
    <path
       d="m 131.076,97.187 c 0.073,-11.867 0.146,-23.735 0.219,-35.602 8.93,3.193 16.407,9.093 24.785,13.32 2.435,1.229 4.694,2.808 7.034,4.228 0,0.001 -0.312,0.06 -0.31,0.06 -10.521,6.086 -21.043,12.172 -31.565,18.257 z"
       fill="#7fb543"
       id="path16" />
    <path
       d="m 193.784,98.356 c -10.165,5.48 -20.214,11.156 -29.803,17.609 -0.277,0.043 -0.551,0.101 -0.822,0.172 -0.119,-12.315 -0.238,-24.629 -0.356,-36.944 0,0 0.312,-0.059 0.312,-0.06 9.138,5.251 18.273,10.508 27.417,15.75 1.45,0.831 2.852,1.675 3.253,3.474 z"
       fill="#6bc6b7"
       id="path18" />
    <path
       d="m 97.529,116.199 c -5.737,-4.943 -12.805,-7.766 -19.05,-11.914 -3.407,-2.263 -7.164,-3.999 -10.764,-5.972 1.419,-3.84 5.378,-4.503 8.295,-6.309 7.319,-4.532 14.911,-8.623 22.394,-12.891 0,0 0.04,0.233 0.04,0.233 0.06,12.199 0.121,24.398 0.181,36.597 0,0 -0.282,0.345 -0.282,0.345 -0.264,-0.092 -0.535,-0.122 -0.813,-0.09 z"
       fill="#ed7724"
       id="path20" />
    <path
       d="m 163.944,152.818 c 5.764,4.912 12.817,7.769 19.07,11.914 3.41,2.26 7.17,3.993 10.772,5.963 -1.419,3.841 -5.38,4.502 -8.296,6.31 -7.32,4.538 -14.917,8.631 -22.402,12.903 0,0 -0.033,-0.241 -0.033,-0.241 0.077,-12.234 0.154,-24.469 0.231,-36.704 0.207,-0.102 0.427,-0.151 0.659,-0.145 z"
       fill="#ed7724"
       id="path22" />
    <path
       d="m 67.727,170.649 c 9.892,-5.612 19.784,-11.224 29.675,-16.836 1.594,1.452 0.95,3.37 0.975,5.097 0.151,10.304 0.226,20.61 0.327,30.915 0,0 -0.312,0.058 -0.312,0.059 -9.139,-5.254 -18.275,-10.516 -27.422,-15.76 -1.451,-0.832 -2.859,-1.666 -3.244,-3.476 z"
       fill="#6bc6b7"
       id="path24" />
    <path
       d="m 131.168,207.448 c 0.099,-11.637 0.198,-23.275 0.295,-34.911 1.058,0.402 2.187,0.678 3.166,1.223 9.49,5.277 18.954,10.598 28.426,15.907 0,0 0.033,0.241 0.033,0.241 -8.996,5.245 -17.971,10.526 -27.008,15.698 -1.498,0.857 -2.992,1.993 -4.912,1.842 z"
       fill="#b7cc34"
       id="path26" />
    <path
       d="m 194.77,134.994 c -10.216,5.656 -20.432,11.311 -30.649,16.967 0.003,-11.637 0.006,-23.274 0.009,-34.91 9.606,5.444 19.209,10.893 28.825,16.321 0.556,0.314 1.21,0.453 1.818,0.674 0.156,0.317 0.155,0.633 -0.003,0.948 z"
       fill="#4d3984"
       id="path28" />
    <path
       d="m 131.212,171.614 c -0.233,0.065 -0.471,0.092 -0.714,0.08 -0.933,-0.639 -1.828,-1.34 -2.803,-1.906 -9.754,-5.67 -19.52,-11.318 -29.283,-16.972 -0.046,-0.622 -0.092,-1.243 -0.138,-1.865 0,-10.633 0,-21.266 0,-31.899 0.022,-0.921 0.045,-1.842 0.067,-2.764 0,0 0.282,-0.345 0.28,-0.344 -0.002,0 0.357,0.06 0.357,0.06 l 0.363,-0.026 c 10.634,6.343 21.269,12.685 31.903,19.028 0.019,11.96 0.039,23.92 0.058,35.88 -0.039,0.242 -0.07,0.484 -0.092,0.728 z"
       fill="#e2e2e2"
       id="path30" />
    <path
       d="m 131.212,171.614 c 0.023,-0.244 0.053,-0.486 0.092,-0.727 10.587,-6.059 21.174,-12.118 31.761,-18.178 0,0 0.221,0.254 0.221,0.254 -0.077,12.235 -0.154,24.469 -0.232,36.704 -9.472,-5.309 -18.936,-10.63 -28.426,-15.907 -0.979,-0.544 -2.108,-0.821 -3.166,-1.223 -0.088,-0.307 -0.172,-0.614 -0.251,-0.923 z"
       fill="#f4a926"
       id="path32" />
    <path
       d="m 98.413,152.816 c 9.763,5.654 19.529,11.302 29.283,16.972 0.974,0.566 1.87,1.267 2.803,1.906 -10.599,6.044 -21.198,12.088 -31.796,18.131 -0.099,-10.305 -0.174,-20.611 -0.325,-30.915 -0.025,-1.727 0.619,-3.645 -0.975,-5.097 0.036,-0.245 0.073,-0.489 0.11,-0.733 0.304,-0.074 0.605,-0.162 0.901,-0.264 z"
       fill="#39ad9c"
       id="path34" />
    <path
       d="m 131.247,135.007 c -10.634,-6.343 -21.269,-12.685 -31.903,-19.028 0.63,-1.308 1.991,-1.573 3.102,-2.221 9.356,-5.462 18.692,-10.957 28.035,-16.442 0.218,0.045 0.417,0.002 0.597,-0.128 -0.001,0 0.162,0.263 0.161,0.262 0.777,0.563 1.514,1.194 2.337,1.68 9.523,5.634 19.058,11.246 28.59,16.864 -1.229,1.353 -2.802,2.18 -4.369,3.086 -8.934,5.167 -18.172,9.834 -26.55,15.926 z"
       fill="#fbfaf9"
       id="path36" />
    <path
       d="m 130.48,97.316 c -9.342,5.485 -18.679,10.98 -28.035,16.442 -1.111,0.649 -2.472,0.914 -3.102,2.221 0,0 -0.363,0.026 -0.363,0.026 0,0 -0.359,-0.06 -0.357,-0.06 -0.059,-12.2 -0.119,-24.399 -0.179,-36.598 10.679,5.99 21.358,11.979 32.036,17.969 z"
       fill="#f4a926"
       id="path38" />
    <path
       d="m 98.275,119.052 c 0,10.633 0,21.266 0,31.899 -0.29,0.315 -0.58,0.629 -0.871,0.944 -10.377,-5.152 -20.144,-11.376 -30.174,-17.14 5.146,-4.588 11.608,-7.044 17.36,-10.655 4.115,-2.583 8.52,-4.705 12.795,-7.032 0.032,0.78 0.141,1.525 0.89,1.984 z"
       fill="#7a4788"
       id="path40" />
    <path
       d="m 98.275,119.052 c -0.749,-0.459 -0.858,-1.205 -0.89,-1.984 0.081,-0.284 0.128,-0.573 0.143,-0.868 0.279,-0.033 0.55,-0.003 0.814,0.089 -0.023,0.921 -0.045,1.842 -0.067,2.764 z"
       fill="#733a7f"
       id="path42" />
    <path
       d="m 164.13,117.051 c -0.003,11.637 -0.006,23.274 -0.009,34.91 -0.092,0.278 -0.151,0.563 -0.176,0.856 -0.233,-0.005 -0.453,0.044 -0.66,0.146 0,0 -0.221,-0.254 -0.221,-0.254 0.03,-12.181 0.059,-24.363 0.089,-36.544 l 0.005,-0.028 c 0.271,-0.071 0.546,-0.129 0.822,-0.172 0.049,0.362 0.099,0.724 0.149,1.085 z"
       fill="#422d7b"
       id="path44" />
    <path
       d="m 97.404,151.895 c 0.29,-0.315 0.58,-0.629 0.871,-0.944 0.046,0.622 0.092,1.244 0.138,1.865 -0.296,0.102 -0.597,0.19 -0.901,0.264 -0.036,-0.395 -0.072,-0.79 -0.108,-1.185 z"
       fill="#733a7f"
       id="path46" />
    <path
       d="m 162.166,115.994 c -9.532,-5.618 -19.068,-11.23 -28.59,-16.864 -0.823,-0.487 -1.561,-1.117 -2.337,-1.68 10.523,-6.085 21.045,-12.171 31.566,-18.257 0.117,12.315 0.236,24.63 0.355,36.944 0,0 -0.005,0.028 -0.005,0.027 -0.329,-0.057 -0.659,-0.114 -0.989,-0.171 z"
       fill="#39ad9c"
       id="path48" />
    <path
       d="m 162.166,115.994 c 0.33,0.057 0.659,0.114 0.989,0.171 -0.03,12.182 -0.06,24.363 -0.089,36.544 -10.587,6.059 -21.174,12.119 -31.761,18.178 -0.019,-11.96 -0.039,-23.92 -0.058,-35.88 8.378,-6.093 17.616,-10.76 26.55,-15.926 1.567,-0.906 3.14,-1.733 4.369,-3.086 z"
       fill="#eeeded"
       id="path50" />
  </g>
</svg>
