<?xml version="1.0" encoding="UTF-8" standalone="no"?>
<svg
   id="uuid-8950bfee-a5ea-4272-b7a8-513b79e289ae"
   viewBox="0 0 118.03 118.03"
   version="1.1"
   width="118.03"
   height="118.03"
   xmlns="http://www.w3.org/2000/svg"
   xmlns:svg="http://www.w3.org/2000/svg">
  <defs
     id="defs13" />
  <rect
     x="0"
     y="0"
     width="118.03"
     height="118.03"
     rx="34.152"
     ry="34.152"
     fill="#f8ec24"
     id="rect2" />
  <g
     id="g8"
     transform="translate(-78.583,-71.070999)">
    <path
       d="m 138.008,169.991 c -6.383,0 -12.011,-3.941 -14.414,-5.623 -0.208,-0.146 -0.376,-0.266 -0.502,-0.348 -1.09,-0.631 -1.353,-0.763 -3.763,-0.763 -1.012,0 -2.342,0.037 -4.311,0.122 l -0.282,0.014 c -0.349,0.018 -0.705,0.035 -1.058,0.035 -1.594,0 -2.945,-0.333 -4.131,-1.018 -1.474,-0.852 -2.614,-2.24 -3.246,-3.891 -0.252,-0.037 -0.509,-0.082 -0.769,-0.136 -1.945,-0.406 -3.62,-0.983 -5.127,-1.766 -0.946,-0.495 -3.428,-1.792 -4.277,-4.697 -0.566,-1.926 -0.315,-3.903 0.708,-5.559 1.132,-1.834 3.169,-3.137 5.589,-3.575 0.667,-0.12 1.291,-0.32 1.91,-0.608 2.298,-1.074 4.47,-2.841 5.81,-4.726 0.941,-1.322 1.46,-2.18 1.743,-2.735 -0.175,-0.067 -0.385,-0.139 -0.635,-0.214 -4.16,-1.251 -6.684,-3.398 -7.505,-6.382 -0.634,-2.306 -0.025,-4.833 1.591,-6.595 1.01,-1.103 2.836,-2.417 5.796,-2.417 0.501,0 0.992,0.037 1.466,0.1 -0.002,-0.144 -0.004,-0.289 -0.007,-0.432 -0.107,-6.746 -0.216,-13.721 5.862,-20.778 4.279,-4.968 11.334,-7.817 19.357,-7.817 2.417,0 5.028,0.322 7.55,0.931 4.058,0.982 7.804,3.002 10.835,5.84 7.473,7.002 7.351,14.914 7.242,21.895 -0.002,0.12 -0.004,0.241 -0.006,0.361 0.475,-0.062 0.965,-0.099 1.466,-0.099 2.96,0 4.786,1.314 5.796,2.417 1.615,1.761 2.225,4.288 1.591,6.594 -0.821,2.985 -3.346,5.132 -7.505,6.383 -0.249,0.075 -0.459,0.147 -0.634,0.214 0.283,0.555 0.801,1.414 1.74,2.736 0.742,1.044 1.708,2.028 2.868,2.921 0.94,0.725 1.929,1.331 2.942,1.805 0.618,0.289 1.243,0.487 1.91,0.608 2.42,0.438 4.457,1.741 5.589,3.575 1.023,1.657 1.273,3.633 0.705,5.565 -0.848,2.907 -3.336,4.201 -4.272,4.688 -1.801,0.936 -3.733,1.523 -5.991,1.814 -0.227,0.66 -0.579,1.387 -1.152,2.097 -1.497,1.864 -3.964,2.892 -6.943,2.892 v 0 c -0.181,0 -0.358,-0.004 -0.528,-0.011 -2.076,-0.088 -3.398,-0.126 -4.421,-0.126 -2.382,0 -2.609,0.131 -3.698,0.762 -0.06,0.04 -0.231,0.162 -0.447,0.311 -2.43,1.684 -8.121,5.628 -14.429,5.636 h -0.014 z"
       fill="#010101"
       fill-rule="evenodd"
       id="path4" />
    <path
       d="m 172.729,147.653 c -1.093,-0.198 -2.12,-0.526 -3.124,-0.994 -1.373,-0.641 -2.671,-1.446 -3.865,-2.366 -1.475,-1.135 -2.808,-2.464 -3.884,-3.976 -3.099,-4.364 -5.31,-8.503 1.501,-10.549 5.137,-1.545 4.494,-4.027 3.693,-4.901 -2.349,-2.563 -8.41,1.977 -8.524,-0.492 -0.412,-9.048 1.752,-16.822 -5.709,-23.813 -2.393,-2.241 -5.413,-3.867 -8.617,-4.642 -2.043,-0.493 -4.284,-0.793 -6.389,-0.793 -5.59,0 -11.877,1.765 -15.61,6.099 -6.26,7.267 -4.297,14.406 -4.696,23.15 -0.115,2.469 -6.174,-2.07 -8.523,0.492 -0.8,0.873 -1.445,3.356 3.692,4.901 6.811,2.046 4.606,6.186 1.5,10.549 -1.905,2.68 -4.773,4.952 -7.747,6.342 -1.004,0.469 -2.03,0.797 -3.123,0.994 -1.437,0.26 -2.924,1.201 -2.431,2.88 0.24,0.819 1.098,1.324 1.81,1.696 1.209,0.628 2.521,1.034 3.853,1.312 0.691,0.143 1.416,0.191 2.121,0.242 0.535,0.039 1.209,0.016 1.621,0.427 0.46,0.458 0.369,1.141 0.439,1.727 0.101,0.825 0.557,1.759 1.304,2.191 0.82,0.474 1.857,0.35 2.787,0.31 7.372,-0.314 8.343,-0.099 10.805,1.327 1.093,0.63 6.691,5.285 12.404,5.281 5.61,-0.007 11.332,-4.661 12.403,-5.281 2.461,-1.426 3.434,-1.611 10.806,-1.298 1.096,0.046 2.679,-0.131 3.411,-1.043 0.689,-0.856 0.358,-2.068 0.94,-2.924 0.484,-0.712 1.378,-0.799 2.171,-0.855 1.975,-0.132 3.833,-0.5 5.6,-1.418 0.716,-0.372 1.571,-0.877 1.811,-1.696 0.493,-1.679 -0.993,-2.62 -2.429,-2.88 z"
       fill="#ffffff"
       fill-rule="evenodd"
       id="path6" />
  </g>
</svg>
