<?xml version="1.0" encoding="UTF-8" standalone="no"?>
<svg
   id="uuid-00239afe-beca-4477-ab6e-f72734f90a19"
   viewBox="0 0 220.174 220.17399"
   version="1.1"
   width="220.174"
   height="220.174"
   xmlns="http://www.w3.org/2000/svg"
   xmlns:svg="http://www.w3.org/2000/svg">
  <defs
     id="defs9" />
  <rect
     x="0"
     y="0"
     width="220.174"
     height="220.174"
     rx="63.708"
     ry="63.708"
     fill="#010101"
     id="rect2" />
  <path
     d="M 110.998,190.841 C 87.326,190.677 69.103,182.681 56.826,167.074 45.96,153.26 40.355,134.109 40.168,110.155 v -0.137 C 40.355,86.063 45.96,66.913 56.826,53.099 69.103,37.492 87.326,29.496 110.987,29.332 h 0.104 c 23.71,0.165 42.128,8.125 54.755,23.66 6.118,7.527 10.69,16.689 13.588,27.23 l 0.573,2.085 h -17.75 l -0.377,-1.125 c -2.252,-6.734 -5.322,-12.521 -9.125,-17.2 -9.27,-11.405 -23.307,-17.258 -41.723,-17.394 -18.244,0.136 -32.028,5.952 -40.945,17.287 -8.423,10.708 -12.778,26.261 -12.941,46.226 0.164,19.938 4.518,35.49 12.941,46.198 8.917,11.336 22.701,17.152 40.969,17.287 16.446,-0.121 27.312,-4.006 36.306,-12.992 10.063,-10.054 9.894,-22.341 6.692,-29.807 -1.555,-3.627 -4.162,-6.77 -7.766,-9.368 -1.385,7.996 -4.045,14.426 -8.1,19.594 -5.924,7.552 -14.383,11.68 -25.144,12.269 -0.748,0.041 -1.504,0.062 -2.249,0.062 -7.288,0 -14.323,-1.995 -19.809,-5.616 -7.316,-4.83 -11.597,-12.228 -12.056,-20.832 -0.9,-16.887 12.341,-29.031 32.95,-30.219 1.972,-0.113 3.936,-0.171 5.838,-0.171 4.046,0 7.969,0.259 11.697,0.77 -0.832,-3.531 -2.176,-6.389 -4.008,-8.517 -2.996,-3.477 -7.709,-5.261 -14.009,-5.301 h -0.178 c -5.007,0 -11.884,1.378 -16.215,7.95 l -0.924,1.402 -14.073,-9.654 0.89,-1.351 C 87.53,71.743 98.296,66.201 111.214,66.201 h 0.294 c 21.163,0.136 34.142,13.261 35.731,36.06 0.405,0.183 0.807,0.369 1.205,0.56 9.998,4.796 17.319,12.082 21.174,21.069 5.354,12.487 5.854,32.815 -10.355,49.008 -12.274,12.263 -27.129,17.797 -48.163,17.942 h -0.104 z m 6.521,-77.073 c -1.531,0 -3.105,0.046 -4.676,0.136 -12.937,0.746 -17.243,6.717 -16.959,12.057 0.371,6.958 7.982,10.128 14.896,10.128 0.449,0 0.899,-0.013 1.347,-0.038 7.865,-0.431 16.094,-3.32 17.93,-21.158 -3.906,-0.747 -8.116,-1.125 -12.539,-1.125 z"
     fill="#ffffff"
     id="path4" />
</svg>
