<?xml version="1.0" encoding="UTF-8" standalone="no"?>
<svg
   id="uuid-9c0970a1-0275-4204-99f3-4bd2ea768088"
   viewBox="0 0 219.13001 219.13"
   version="1.1"
   width="219.13"
   height="219.13"
   xmlns="http://www.w3.org/2000/svg"
   xmlns:svg="http://www.w3.org/2000/svg">
  <defs
     id="defs5">
    <clipPath
       id="uuid-b68687c2-476c-4e07-bfbb-780cba529cff">
      <rect
         x="27.913"
         y="21.264"
         width="219.13"
         height="219.13"
         rx="63.405998"
         ry="63.405998"
         fill="none"
         id="rect2" />
    </clipPath>
  </defs>
  <g
     clip-path="url(#uuid-b68687c2-476c-4e07-bfbb-780cba529cff)"
     id="g21"
     transform="translate(-27.913,-21.264)">
    <g
       id="g19">
      <path
         d="m 26.891,18.729 c 73.264,0 146.529,0.006 219.793,-0.041 1.624,-10e-4 1.991,0.366 1.99,1.99 -0.047,73.266 -0.041,146.532 -0.041,219.798 -73.035,0 -146.07,-0.011 -219.104,0.052 -2.18,0.002 -2.692,-0.51 -2.69,-2.69 0.064,-73.036 0.053,-146.073 0.052,-219.109 z m 77.56,198.908 c 0.224,0.149 0.448,0.299 0.672,0.448 0.47,-0.641 0.867,-1.354 1.421,-1.911 8.608,-8.638 17.254,-17.238 25.837,-25.901 1.101,-1.111 2.198,-1.625 3.779,-1.604 6.06,0.08 12.122,-0.004 18.183,0.059 1.416,0.015 2.414,-0.437 3.41,-1.436 15.024,-15.08 30.077,-30.131 45.156,-45.156 0.999,-0.996 1.422,-1.997 1.42,-3.412 -0.038,-24.462 -0.045,-48.924 0.009,-73.386 0.004,-1.782 -0.471,-2.317 -2.288,-2.314 -33.698,0.052 -67.395,0.045 -101.093,0.013 -1.405,-10e-4 -2.426,0.388 -3.427,1.397 -8.281,8.352 -16.602,16.665 -24.946,24.955 -0.933,0.927 -1.389,1.854 -1.387,3.208 0.035,31.317 0.04,62.634 -0.008,93.952 -0.003,1.689 0.427,2.209 2.163,2.194 9.524,-0.083 19.05,0.032 28.573,-0.095 2.136,-0.028 2.605,0.585 2.577,2.635 -0.118,8.784 -0.05,17.57 -0.05,26.356 z"
         fill="#765ca7"
         id="path7" />
      <path
         d="m 26.891,18.729 c 0,73.036 0.011,146.073 -0.052,219.109 -0.002,2.18 0.51,2.692 2.69,2.69 73.035,-0.064 146.07,-0.053 219.104,-0.052 -0.39,0.895 -1.17,0.404 -1.732,0.406 -9.023,0.038 -18.045,0.027 -27.068,0.027 -63.808,0 -127.617,-0.007 -191.425,0.041 -1.624,0.001 -1.991,-0.366 -1.99,-1.99 0.047,-72.761 0.039,-145.521 0.067,-218.282 0,-0.634 -0.5,-1.469 0.406,-1.949 z"
         fill="#fefefe"
         id="path9" />
      <path
         d="m 104.451,217.637 c 0,-8.785 -0.068,-17.572 0.05,-26.356 0.028,-2.05 -0.441,-2.663 -2.577,-2.635 -9.523,0.127 -19.049,0.011 -28.573,0.095 -1.736,0.015 -2.165,-0.505 -2.163,-2.194 0.048,-31.317 0.043,-62.634 0.008,-93.952 -0.002,-1.353 0.454,-2.281 1.387,-3.208 8.344,-8.29 16.665,-16.603 24.946,-24.955 1,-1.009 2.022,-1.398 3.427,-1.397 33.698,0.032 67.395,0.039 101.093,-0.013 1.818,-0.003 2.292,0.532 2.288,2.314 -0.054,24.462 -0.047,48.924 -0.009,73.386 0.002,1.415 -0.42,2.417 -1.42,3.412 -15.079,15.025 -30.132,30.076 -45.156,45.156 -0.996,0.999 -1.994,1.451 -3.41,1.436 -6.061,-0.063 -12.123,0.021 -18.183,-0.059 -1.581,-0.021 -2.678,0.493 -3.779,1.604 -8.583,8.663 -17.229,17.263 -25.837,25.901 -0.554,0.556 -0.951,1.27 -1.421,1.911 -0.224,-0.149 -0.448,-0.299 -0.672,-0.448 z m 22.177,-38.25 c 0.855,-0.8 1.379,-1.264 1.874,-1.758 6.942,-6.933 13.899,-13.851 20.796,-20.828 0.942,-0.953 1.87,-1.319 3.194,-1.304 6.203,0.066 12.408,0.011 18.612,0.047 1.064,0.006 1.884,-0.198 2.679,-1.001 6.138,-6.205 12.317,-12.37 18.509,-18.521 0.661,-0.657 0.926,-1.325 0.925,-2.262 -0.026,-19.334 -0.037,-38.668 0.017,-58.002 0.004,-1.406 -0.435,-1.619 -1.701,-1.618 -28.423,0.035 -56.847,0.035 -85.271,0.002 -1.312,-0.002 -1.849,0.188 -1.846,1.715 0.053,25.971 0.05,51.943 0.006,77.914 -0.002,1.448 0.427,1.803 1.821,1.787 6.131,-0.071 12.264,0.026 18.395,-0.07 1.575,-0.024 2.059,0.314 2.034,1.981 -0.106,7.134 -0.045,14.27 -0.045,21.919 z"
         fill="#020006"
         id="path11" />
      <path
         d="m 126.628,179.386 c 0,-7.648 -0.061,-14.785 0.045,-21.919 0.025,-1.667 -0.459,-2.005 -2.034,-1.981 -6.131,0.095 -12.264,-0.002 -18.395,0.07 -1.394,0.016 -1.823,-0.338 -1.821,-1.787 0.044,-25.971 0.047,-51.943 -0.006,-77.914 -0.003,-1.527 0.534,-1.716 1.846,-1.715 28.424,0.033 56.847,0.033 85.271,-0.002 1.266,-0.002 1.705,0.212 1.701,1.618 -0.054,19.334 -0.043,38.668 -0.017,58.002 0.001,0.937 -0.264,1.605 -0.925,2.262 -6.192,6.152 -12.371,12.316 -18.509,18.521 -0.795,0.803 -1.616,1.008 -2.679,1.001 -6.204,-0.037 -12.409,0.019 -18.612,-0.047 -1.324,-0.014 -2.253,0.352 -3.194,1.304 -6.897,6.977 -13.854,13.895 -20.796,20.828 -0.495,0.494 -1.019,0.958 -1.874,1.758 z m 11.134,-66.676 c 0,5.124 0.039,10.249 -0.029,15.372 -0.016,1.224 0.322,1.589 1.549,1.548 2.739,-0.091 5.484,-0.052 8.226,-0.015 0.921,0.013 1.442,-0.091 1.437,-1.254 -0.043,-10.248 -0.036,-20.497 -0.008,-30.745 0.003,-1.04 -0.352,-1.378 -1.381,-1.355 -2.597,0.057 -5.201,0.114 -7.792,-0.017 -1.556,-0.079 -2.096,0.262 -2.049,1.961 0.134,4.832 0.047,9.67 0.047,14.505 z m 27.718,0.126 c 0,5.124 0.016,10.249 -0.015,15.373 -0.005,0.913 0.046,1.458 1.228,1.422 2.884,-0.088 5.774,-0.072 8.659,-0.006 1.088,0.025 1.308,-0.399 1.305,-1.388 -0.029,-10.176 -0.034,-20.353 0.004,-30.529 0.004,-1.168 -0.414,-1.474 -1.513,-1.448 -2.669,0.063 -5.343,0.094 -8.009,-0.011 -1.312,-0.052 -1.719,0.274 -1.694,1.648 0.09,4.978 0.035,9.959 0.036,14.939 z"
         fill="#fefefe"
         id="path13" />
      <path
         d="m 137.762,112.71 c 0,-4.835 0.087,-9.673 -0.047,-14.505 -0.047,-1.698 0.493,-2.039 2.049,-1.961 2.591,0.131 5.195,0.074 7.792,0.017 1.029,-0.023 1.384,0.315 1.381,1.355 -0.028,10.248 -0.034,20.497 0.008,30.745 0.005,1.163 -0.516,1.266 -1.437,1.254 -2.742,-0.037 -5.487,-0.076 -8.226,0.015 -1.227,0.041 -1.566,-0.324 -1.549,-1.548 0.068,-5.123 0.029,-10.248 0.029,-15.372 z"
         fill="#020006"
         id="path15" />
      <path
         d="m 165.48,112.836 c 0,-4.98 0.055,-9.961 -0.036,-14.939 -0.025,-1.374 0.382,-1.7 1.694,-1.648 2.666,0.105 5.34,0.074 8.009,0.011 1.099,-0.026 1.517,0.28 1.513,1.448 -0.038,10.176 -0.033,20.352 -0.004,30.529 0.003,0.989 -0.217,1.413 -1.305,1.388 -2.885,-0.066 -5.775,-0.081 -8.659,0.006 -1.183,0.036 -1.234,-0.509 -1.228,-1.422 0.031,-5.124 0.015,-10.248 0.015,-15.373 z"
         fill="#020006"
         id="path17" />
    </g>
  </g>
</svg>
