<?xml version="1.0" encoding="UTF-8" standalone="no"?>
<svg
   id="uuid-b9f2d832-69bc-4ca7-88be-bf377678f7ca"
   viewBox="0 0 211.25421 219.65913"
   version="1.1"
   width="211.25421"
   height="219.65913"
   xmlns="http://www.w3.org/2000/svg"
   xmlns:svg="http://www.w3.org/2000/svg">
  <defs
     id="defs19" />
  <path
     d="m 162.85123,0.24491726 c 26.3,-2.99999996 48.7,22.09999974 48.4,45.69999974 -0.5,43.4 0.1,86.700003 -0.3,130.100003 -0.2,20.3 -17.6,39.7 -38.7,42.7 -7.7,1.1 -15.3,0.9 -22.9,0.9 -32.9,0 -65.900001,0 -98.800001,0 -22.5,0 -38.9,-9.7 -47.8000001,-30.7 -3.00000002,-7 -3.00000002,-14.5 -2.40000002,-22 33.30000012,0 66.70000012,-0.1 100.00000112,-0.2 37,1 63.3,-25.4 62.3,-62.3 0,-34.800003 0.1,-69.500003 0.2,-104.30000274 z"
     fill="#262057"
     id="path2" />
  <path
     d="m 162.85123,0.24491726 c 0,34.79999974 -0.1,69.49999974 -0.2,104.30000274 -0.8,-3.9 -1.1,-7.900003 -2.4,-11.600003 -8.5,-24.8 -28,-40.2 -55.2,-41.1 -19.100001,-0.6 -38.300001,0 -57.500001,0 l -0.2,-0.2 c 0,-17.1 0,-34.2 0,-51.39999974 38.5,0 76.900001,0 115.400001,0 z"
     fill="#6c69b0"
     id="path4" />
  <path
     d="m 100.35123,166.84492 c -33.300001,0 -66.700001,0.1 -100.00000112,0.2 0,-38.5 0,-76.900003 0,-115.400003 15.70000012,0 31.40000012,0 47.10000012,0 l 0.2,0.2 c 0.4,21.9 -1.6,43.8 1.1,65.600003 2.3,19.1 12.9,32.8 29.3,42.3 7,4.1 14.8,5.2 22.400001,7.1 z"
     fill="#6c69b0"
     id="path6" />
  <path
     d="m 47.451229,51.644917 c -15.7,0 -31.4,0 -47.10000012,0 C -2.6487711,27.544917 13.951229,6.3449173 35.551229,0.74491726 c 4,-1 7.9,-0.6 11.9,-0.6 0,17.09999974 0,34.19999974 0,51.39999974 z"
     fill="#262057"
     id="path8" />
  <path
     d="m 100.35123,166.84492 c -7.600001,-2 -15.400001,-3 -22.400001,-7.1 -16.4,-9.6 -26.9,-23.3 -29.3,-42.3 -2.7,-21.800003 -0.6,-43.700003 -1.1,-65.600003 19.2,0 38.4,-0.6 57.500001,0 27.1,0.9 46.7,16.3 55.2,41.1 1.3,3.7 1.6,7.700003 2.4,11.600003 1,36.9 -25.4,63.3 -62.3,62.3 z m 5,-19.5 c 21.4,0 37.9,-16.7 37.8,-38.2 0,-21.400003 -16.7,-37.900003 -38.2,-37.800003 -21.400001,0 -37.900001,16.7 -37.800001,38.200003 0,21.4 16.7,37.9 38.200001,37.8 z"
     fill="#f8d749"
     id="path10" />
  <path
     d="m 105.35123,147.34492 c -21.500001,0 -38.100001,-16.4 -38.200001,-37.8 0,-21.500003 16.4,-38.100003 37.800001,-38.200003 21.5,0 38.1,16.4 38.2,37.800003 0,21.5 -16.4,38.1 -37.8,38.2 z m -0.3,-18.8 c 10.3,0 19.2,-8.6 19.4,-18.8 0.2,-10.500003 -8.6,-19.600003 -19.1,-19.600003 -10.300001,0 -19.200001,8.6 -19.400001,18.800003 -0.2,10.5 8.6,19.6 19.100001,19.6 z"
     fill="#f47821"
     id="path12" />
  <path
     d="m 105.05123,128.54492 c -10.500001,0 -19.200001,-9.1 -19.100001,-19.6 0.2,-10.200003 9.1,-18.900003 19.400001,-18.800003 10.5,0 19.2,9.1 19.1,19.600003 -0.2,10.2 -9.1,18.9 -19.4,18.8 z"
     fill="#fffdfb"
     id="path14" />
</svg>
