<?xml version="1.0" encoding="UTF-8" standalone="no"?>
<svg
   id="uuid-a41a1c04-c4a6-4470-b1de-222ec50ba4f5"
   viewBox="0 0 183.7 220.49999"
   version="1.1"
   width="183.7"
   height="220.5"
   xmlns="http://www.w3.org/2000/svg"
   xmlns:svg="http://www.w3.org/2000/svg">
  <defs
     id="defs17">
    <linearGradient
       id="uuid-86253658-36a6-4cc4-984e-edc85d452235"
       x1="81.5"
       y1="47.5"
       x2="196.10001"
       y2="185"
       gradientUnits="userSpaceOnUse"
       gradientTransform="translate(-43.5,-20.2)">
      <stop
         offset="0"
         stop-color="#c5d937"
         id="stop2" />
      <stop
         offset=".2"
         stop-color="#c0d737"
         id="stop4" />
      <stop
         offset=".4"
         stop-color="#b4d439"
         id="stop6" />
      <stop
         offset=".5"
         stop-color="#9fce3c"
         id="stop8" />
      <stop
         offset=".7"
         stop-color="#82c640"
         id="stop10" />
      <stop
         offset=".9"
         stop-color="#5dbb45"
         id="stop12" />
      <stop
         offset="1"
         stop-color="#46b549"
         id="stop14" />
    </linearGradient>
  </defs>
  <path
     d="M 183.7,91.9 C 183.7,41.2 142.6,0 91.8,0 41,0 0,41.1 0,91.9 c 0,50.8 41.1,91.9 91.9,91.9 v 36.7 l 63.8,-62.6 c 17.3,-16.7 28,-40.1 28,-66 z"
     fill="url(#uuid-86253658-36a6-4cc4-984e-edc85d452235)"
     id="path19"
     style="fill:url(#uuid-86253658-36a6-4cc4-984e-edc85d452235)" />
  <g
     opacity="0.5"
     id="g23"
     transform="translate(-43.5,-20.2)">
    <path
       d="m 80.2,112.1 c 0,30.4 24.7,55.1 55.1,55.1 30.4,0 55.1,-24.7 55.1,-55.1 C 190.4,81.7 165.7,57 135.3,57 V 35 L 97,72.5 c -10.4,10 -16.8,24.1 -16.8,39.6 z"
       fill="#ffffff"
       id="path21" />
  </g>
  <g
     opacity="0.5"
     id="g27"
     transform="translate(-43.5,-20.2)">
    <path
       d="m 89.4,121.3 c 0,25.4 20.6,45.9 45.9,45.9 25.3,0 45.9,-20.6 45.9,-45.9 0,-25.3 -20.6,-45.9 -45.9,-45.9 V 57 l -31.9,31.3 c -8.6,8.4 -14,20.1 -14,33 z"
       fill="#ffffff"
       id="path25" />
  </g>
  <path
     d="m 53.6,108.7 c 0,21.1 17.1,38.3 38.3,38.3 21.2,0 38.3,-17.1 38.3,-38.3 0,-21.2 -17.1,-38.3 -38.3,-38.3 V 55.1 L 65.3,81.2 c -7.2,7 -11.7,16.7 -11.7,27.5 z"
     fill="#ffffff"
     id="path29" />
</svg>
