<?xml version="1.0" encoding="UTF-8" standalone="no"?>
<svg
   id="uuid-d3198704-b2a6-4cf3-b689-3581e2a5845b"
   viewBox="0 0 219.80001 219.8"
   version="1.1"
   width="219.8"
   height="219.8"
   xmlns="http://www.w3.org/2000/svg"
   xmlns:svg="http://www.w3.org/2000/svg">
  <defs
     id="defs5">
    <clipPath
       id="uuid-339d6cbc-1c6e-4522-b6a7-2c998015e035">
      <rect
         x="375.5"
         y="22"
         width="219.8"
         height="219.8"
         rx="63.599998"
         ry="63.599998"
         fill="none"
         id="rect2" />
    </clipPath>
  </defs>
  <g
     clip-path="url(#uuid-339d6cbc-1c6e-4522-b6a7-2c998015e035)"
     id="g21"
     transform="translate(-375.5,-22)">
    <g
       id="g19">
      <path
         d="m 547.9,246.7 h 0.6 c 0,0.1 0.5,0 0.5,0 2.3,-0.3 4.6,-0.7 6.9,-0.9 23.4,-2.2 42.2,-24.2 42.4,-46.4 0.2,-45.7 0,-91.5 0.2,-137.2 0,-8.6 -1.7,-16.5 -5.9,-23.9 -9.3,-16.4 -23,-26 -42.3,-26 -43.6,-0.1 -87.2,0 -130.7,0 -23.8,0 -46.1,22.6 -46.3,45.2 -0.4,47.9 -0.1,95.8 -0.1,143.6 0,4.1 0.9,8.1 2.3,11.9 8.4,21.4 24.1,32.5 47,33.7 l 0.5,0.2 h 0.6 c 41.5,-0.1 83,-0.1 124.4,-0.1 z"
         fill="#fcfdfe"
         id="path7" />
      <path
         d="m 422.3,246.6 c -22.9,-1.2 -38.6,-12.4 -47,-33.7 -1.5,-3.8 -2.3,-7.8 -2.3,-11.9 0,-47.9 -0.3,-95.8 0.1,-143.6 0.2,-22.6 22.5,-45.3 46.3,-45.2 43.6,0.1 87.2,0 130.7,0 19.3,0 33,9.6 42.3,26 4.2,7.4 6,15.3 5.9,23.9 -0.2,45.7 0,91.5 -0.2,137.2 -0.1,22.2 -19,44.1 -42.4,46.4 -2.3,0.2 -4.6,0.6 -6.9,0.9 -0.4,-0.6 -0.8,-0.5 -1.1,0 -41.5,0 -83,0 -124.4,0 -0.3,-0.6 -0.7,-0.6 -1.1,0 z M 570.7,142.1 c -11.3,3.3 -22.4,6.5 -33.6,9.7 -4.3,1.2 -8.5,2.2 -11.4,6.2 -4.6,6.4 -11.1,8.5 -19,8.1 -9.5,-0.5 -9.3,-0.1 -9.5,-9.8 0,-3.9 1.2,-5.4 5,-4.7 5.2,1 9.1,-1.3 12.4,-5 3,-3.3 5.9,-6.7 8.6,-10.2 9,-11.9 10.5,-24.1 2.4,-37.3 -5,-8.1 -11,-15.3 -18.3,-21 -6.9,-5.5 -12,-10.9 -10.1,-20.5 0.7,-3.5 -1.9,-5.9 -5.2,-6.7 -3.4,-0.8 -6.5,-0.2 -8.6,3.2 -1.6,2.6 -1.4,5.3 -1.2,8 0.1,3.3 -0.5,4.7 -4.3,3.2 -4.8,-1.9 -9.9,-3.3 -15.6,-3.9 4.5,9.9 9.3,19.2 12.2,29.3 3.3,11.5 6.2,23.1 1.7,34.9 -2.7,7.1 -6.5,13.7 -10.6,20.1 -1,1.6 -3.3,3.2 -2.3,4.9 1.2,2.2 3.9,0.9 5.9,1 3.3,0.2 6.6,0 10,0 1.8,0 2.7,0.4 3,2.5 1.7,10.2 0.4,11.9 -9.6,11.9 -2.7,0 -5.5,0 -8.2,0 -8.6,-0.2 -13,-4 -14.1,-12.4 -0.4,-2.9 -1.3,-4.1 -4.3,-4.1 -10.8,0 -21.5,0 -32.3,0 -2.9,0 -4.7,1 -4.1,4.1 0.8,3.8 0.5,7.7 1.8,11.5 6.8,19.4 22.7,31 43.4,31 20.7,0 41.5,-0.4 62.2,0.2 10.4,0.3 18,-3.7 24.1,-11.5 2.5,-3.2 4.5,-6.8 6.7,-10.2 4.7,-7.2 8.6,-15.4 16.9,-18.7 7.3,-2.8 7.1,-7.5 5.8,-13.9 z m -152.5,-6.8 c 12.6,0 23.9,0 35.2,0 1.4,0 2.8,0 3.6,-1.4 3,-5.2 6.6,-10.3 7.4,-16.3 1.8,-12.8 -2.5,-24.5 -7.3,-36.1 -1.5,-3.6 -3.2,-2.5 -4.8,-0.1 -2.6,4.1 -5.1,8.2 -7.7,12.3 -8.6,13.5 -17.2,27.1 -26.4,41.6 z"
         fill="#3e7dc0"
         id="path9" />
      <path
         d="m 422.3,246.6 c 0.4,-0.6 0.8,-0.5 1.1,0 0,0 -0.6,0.1 -0.6,0.1 l -0.5,-0.2 z"
         fill="#3b76bb"
         id="path11" />
      <path
         d="m 547.9,246.7 c 0.3,-0.6 0.7,-0.6 1.1,0 0,0 -0.5,0.2 -0.5,0.2 h -0.6 z"
         fill="#3b76bb"
         id="path13" />
      <path
         d="m 570.7,142.2 c 1.3,6.4 1.5,11.1 -5.8,13.9 -8.4,3.3 -12.3,11.5 -16.9,18.7 -2.2,3.4 -4.2,7 -6.7,10.2 -6.1,7.8 -13.7,11.8 -24.1,11.5 -20.7,-0.6 -41.4,-0.1 -62.2,-0.2 -20.6,0 -36.6,-11.6 -43.4,-31 -1.3,-3.8 -1.1,-7.7 -1.8,-11.5 -0.6,-3.1 1.2,-4.1 4.1,-4.1 10.8,0 21.5,0 32.3,0 3,0 3.9,1.1 4.3,4.1 1.1,8.5 5.5,12.2 14.1,12.4 2.7,0 5.5,0 8.2,0 10,0 11.3,-1.7 9.6,-11.9 -0.3,-2.1 -1.3,-2.5 -3,-2.5 -3.3,0 -6.7,0.1 -10,0 -2,-0.1 -4.8,1.2 -5.9,-1 -0.9,-1.8 1.3,-3.4 2.3,-4.9 4.1,-6.4 7.8,-13 10.6,-20.1 4.5,-11.9 1.6,-23.5 -1.7,-34.9 -2.9,-10 -7.7,-19.3 -12.2,-29.3 5.8,0.6 10.8,2 15.6,3.9 3.8,1.5 4.4,0.1 4.3,-3.2 -0.1,-2.7 -0.3,-5.4 1.2,-8 2.1,-3.4 5.2,-4.1 8.6,-3.2 3.3,0.8 5.9,3.2 5.2,6.7 -1.9,9.6 3.1,15 10.1,20.5 7.2,5.8 13.3,12.9 18.3,21 8.1,13.2 6.6,25.4 -2.4,37.3 -2.7,3.5 -5.6,6.9 -8.6,10.2 -3.3,3.7 -7.1,6 -12.4,5 -3.7,-0.7 -5,0.8 -5,4.7 0.1,9.7 0,9.3 9.5,9.8 7.9,0.4 14.4,-1.7 19,-8.1 2.9,-4.1 7.1,-5 11.4,-6.2 11.2,-3.2 22.3,-6.5 33.6,-9.7 z"
         fill="#fcfdfe"
         id="path15" />
      <path
         d="m 418.1,135.4 c 9.2,-14.5 17.9,-28 26.4,-41.6 2.6,-4.1 5.1,-8.2 7.7,-12.3 1.6,-2.4 3.3,-3.5 4.8,0.1 4.8,11.6 9.1,23.3 7.3,36.1 -0.9,6 -4.5,11.1 -7.4,16.3 -0.8,1.4 -2.2,1.4 -3.6,1.4 -11.3,0 -22.6,0 -35.2,0 z"
         fill="#fcfdfe"
         id="path17" />
    </g>
  </g>
</svg>
