<?xml version="1.0" encoding="UTF-8" standalone="no"?>
<svg
   id="uuid-fd15dc26-4ab7-40fa-a77f-b84c1cfaac54"
   viewBox="0 0 217.50001 217.5"
   version="1.1"
   width="217.5"
   height="217.5"
   xmlns="http://www.w3.org/2000/svg"
   xmlns:svg="http://www.w3.org/2000/svg">
  <defs
     id="defs25" />
  <path
     d="m 216.7,36.5 c -3.8,-19.6 -19.5,-34 -39.5,-36.2 -0.3,0 -0.8,0.1 -1,-0.3 H 42 C 40.1,0.3 38.1,0.5 36.2,0.9 32.1,1.7 28.1,3 24.4,5 21,6.7 18,8.8 15.2,11.3 9.4,16.4 5.2,22.6 2.6,29.9 0.9,34.7 0,39.7 0,44.8 c 0,42.7 0,85.4 0,128 0,23 17.6,42.3 40.5,44.5 1.4,0.1 2.9,0.2 4.3,0.2 h 127.5 c 23.2,0 42,-16.6 44.9,-39.6 0,-0.3 0,-0.8 0.3,-1 V 41.3 c -0.2,-1.6 -0.5,-3.2 -0.8,-4.8 z M 66.8,125.4 c -8.4,0 -16.9,0 -25.3,0 -2.5,0 -5,-2.9 -4.8,-5.4 0,-0.7 0.5,-1.1 0.9,-1.6 6,-6.4 12,-12.7 18.1,-19.1 0.2,-0.3 0.6,-0.5 0.7,-0.9 -0.4,-0.3 -0.9,-0.2 -1.4,-0.2 -4.7,0 -9.3,0 -14,0 -3.1,0 -5.4,-2.3 -5.5,-5.4 0,-0.6 0.3,-0.6 0.8,-0.6 h 23.5 c 3,0 5.2,2.1 5.5,5.1 0,0.9 -0.3,1.5 -0.9,2.1 -5.9,6.3 -11.8,12.6 -17.7,18.9 -0.3,0.3 -0.5,0.6 -0.8,0.9 0.4,0.4 0.8,0.2 1.2,0.2 5,0 10,0 15,0 5,0 5.2,2 5.5,5.1 0,0.6 0,0.9 -0.7,0.9 z m 14.7,0 c -9.1,0 -16.5,-7.5 -16.5,-16.7 0,-7.9 6,-16.5 16.6,-16.5 10.7,0 16.7,8.7 16.5,16.6 0,9.2 -7.4,16.6 -16.6,16.6 z m 35.3,0 c -9.8,-0.2 -16.4,-8.1 -16.3,-16.7 0,-8.4 6.4,-16.6 16.7,-16.5 10.6,0 16.5,8.8 16.4,16.6 0,9.2 -7.5,16.8 -16.8,16.6 z m 65.4,-20 c 0,6.3 0,12.7 0,19 0,0.4 0,0.7 -0.2,1 0,0 -0.2,0 -0.2,0 -0.2,0.2 -0.5,0.2 -0.7,0 -1.6,-0.1 -3,-0.5 -4.1,-1.8 -0.6,-0.7 -1,-1.4 -1,-2.3 0,-5.2 0,-10.5 0,-15.8 0,-3.6 -2.7,-6.7 -6.1,-7.3 -4.2,-0.7 -7.9,2.4 -7.9,6.9 0,6.2 0,12.5 0,18.8 0,6.3 0,1.6 -1.6,1.3 -3.2,-0.6 -4.3,-2 -4.4,-5.3 0,-4.9 0,-9.8 0,-14.6 0,-3.8 -3.1,-7.1 -6.9,-7.2 -3.9,0 -7,3 -7.1,7 0,5 0,10.1 0,15.1 0,3.2 -2.2,5.3 -5.4,5.1 -0.4,0 -0.6,-0.1 -0.6,-0.6 0,-0.1 0,-0.3 0,-0.4 V 93 c 0,-0.3 0,-0.6 0,-0.9 1.8,0.4 3.5,0.8 5,1.7 0.5,0.3 1,0.4 1.6,0 1.6,-0.9 3.4,-1.4 5.3,-1.7 0.8,-0.3 1.6,-0.3 2.5,0 3.1,0.4 5.7,1.8 7.9,3.9 0.3,0.2 0.5,0.6 0.9,0 2,-2.4 4.7,-3.5 7.7,-3.9 6.7,-1 13,3.3 14.8,10.3 0.1,0.5 0.2,1.1 0.3,1.6 0.2,0.3 0.2,0.7 0.2,1.1 z"
     fill="#447ec1"
     id="path2" />
  <path
     d="m 150.5,92.3 c 3.1,0.5 5.7,1.8 7.9,4 0.3,0.3 0.5,0.6 0.9,0 2,-2.4 4.7,-3.5 7.7,-3.9 6.7,-1 13.1,3.3 14.8,10.3 0.1,0.5 0.2,1.1 0.3,1.6 0,4.3 0,8.5 0,12.8 0,2.8 0,5.5 0,8.3 0,0 -0.2,0 -0.2,0 -0.2,0 -0.5,0 -0.7,0 -1.6,-0.1 -3,-0.5 -4.1,-1.8 -0.6,-0.7 -1,-1.4 -1,-2.3 0,-5.2 0,-10.5 0,-15.7 0,-3.6 -2.7,-6.7 -6.1,-7.3 -4.2,-0.7 -7.9,2.4 -7.9,6.9 0,6.2 0,12.5 0,18.7 q 0,1.6 -1.6,1.3 c -3.2,-0.6 -4.3,-2 -4.3,-5.3 0,-4.9 0,-9.8 0,-14.6 0,-3.8 -3.1,-7.1 -6.9,-7.2 -3.9,0 -7,3 -7.1,7 0,5 0,10.1 0,15.1 0,3.2 -2.2,5.3 -5.4,5.2 -0.4,0 -0.6,-0.1 -0.6,-0.6 0,-0.1 0,-0.3 0,-0.4 0,-10.4 0,-20.9 0,-31.3 0,-0.3 0,-0.6 0,-0.9 1.8,0.4 3.5,0.8 5,1.7 0.5,0.3 1,0.4 1.6,0 1.6,-0.9 3.4,-1.4 5.3,-1.7 0.8,0 1.7,0 2.5,0 z"
     fill="#fbfcfe"
     id="path4" />
  <path
     d="M 56.4,98.4 C 56,98.1 55.5,98.2 55,98.2 c -4.7,0 -9.3,0 -14,0 -3.1,0 -5.4,-2.3 -5.5,-5.4 0,-0.6 0.3,-0.6 0.8,-0.6 2.1,0 4.1,0 6.2,0 5.8,0 11.5,0 17.3,0 3,0 5.2,2.1 5.5,5.1 0,0.9 -0.3,1.5 -0.9,2 -5.9,6.3 -11.8,12.6 -17.7,18.9 -0.3,0.3 -0.5,0.6 -0.8,0.9 0.4,0.4 0.8,0.2 1.2,0.2 5,0 10,0 15,0 3.2,0 5.3,2 5.5,5.2 0,0.6 0,0.9 -0.7,0.9 -8.4,0 -16.9,0 -25.3,0 -2.5,0 -5,-2.9 -4.8,-5.4 0,-0.7 0.5,-1.1 0.9,-1.6 6,-6.4 12,-12.7 18.1,-19.1 0.2,-0.3 0.6,-0.5 0.7,-0.9 z"
     fill="#fbfcfe"
     id="path6" />
  <path
     d="m 133.7,108.8 c 0,9.2 -7.5,16.8 -16.8,16.6 -9.8,-0.2 -16.4,-8.1 -16.3,-16.7 0,-8.4 6.4,-16.6 16.7,-16.5 10.6,0 16.5,8.7 16.4,16.6 z m -6,0 c 0,-5.9 -4.8,-10.6 -10.7,-10.6 -5.7,0 -10.5,4.8 -10.5,10.5 0,5.9 4.7,10.6 10.6,10.7 5.8,0 10.6,-4.8 10.6,-10.6 z"
     fill="#fbfcfe"
     id="path8" />
  <path
     d="m 98.2,108.8 c 0,9.2 -7.4,16.6 -16.6,16.6 -9.1,0 -16.5,-7.5 -16.5,-16.7 0,-7.9 6,-16.6 16.6,-16.5 10.7,0 16.6,8.7 16.5,16.6 z m -6,0 c 0,-5.9 -4.8,-10.6 -10.7,-10.6 -5.8,0 -10.5,4.8 -10.5,10.7 0,5.8 4.8,10.5 10.6,10.5 5.8,0 10.6,-4.8 10.5,-10.6 z"
     fill="#fbfcfe"
     id="path10" />
  <path
     d="m 182.1,125.4 c 0,-2.8 0,-5.5 0,-8.3 0,-4.3 0,-8.5 0,-12.8 0.2,0.3 0.2,0.7 0.2,1.1 0,6.3 0,12.7 0,19 0,0.4 0,0.7 -0.2,1 z"
     fill="#447ec1"
     id="path12" />
  <path
     d="m 150.5,92.3 c -0.8,0 -1.6,0 -2.5,0 0.8,-0.3 1.6,-0.3 2.5,0 z"
     fill="#447ec1"
     id="path14" />
  <path
     d="m 181.1,125.5 c 0.2,0 0.5,0 0.7,0 -0.2,0.2 -0.5,0.2 -0.7,0 z"
     fill="#447ec1"
     id="path16" />
  <path
     d="m 127.8,108.8 c 0,5.8 -4.8,10.6 -10.6,10.6 -5.9,0 -10.6,-4.8 -10.6,-10.7 0,-5.8 4.8,-10.5 10.5,-10.5 5.9,0 10.7,4.7 10.7,10.6 z"
     fill="#447ec1"
     id="path18" />
  <path
     d="m 92.2,108.8 c 0,5.8 -4.8,10.6 -10.5,10.6 -5.8,0 -10.6,-4.7 -10.6,-10.5 0,-5.9 4.7,-10.6 10.5,-10.7 5.9,0 10.7,4.7 10.7,10.6 z"
     fill="#447ec1"
     id="path20" />
</svg>
