<?xml version="1.0" encoding="UTF-8" standalone="no"?>
<svg
   id="uuid-e5218070-0394-4ee7-b2d4-9bed825cf82f"
   viewBox="0 0 219.73 219.72999"
   version="1.1"
   width="219.73"
   height="219.73"
   xmlns="http://www.w3.org/2000/svg"
   xmlns:svg="http://www.w3.org/2000/svg">
  <defs
     id="defs10" />
  <rect
     x="0"
     y="0"
     width="219.73"
     height="219.73"
     rx="63.578999"
     ry="63.578999"
     fill="#64bd54"
     id="rect2" />
  <g
     id="uuid-b353c6b1-0c43-40ce-b6e7-ac249687b3d9"
     transform="translate(-26.700001,-20.221001)">
    <path
       d="M 192.664,73.675 C 177.78,58.778 157.985,50.57 136.895,50.562 c -43.454,0 -78.82,35.353 -78.838,78.807 -0.006,13.89 3.625,27.449 10.523,39.401 l -11.184,40.84 41.793,-10.959 c 11.515,6.278 24.48,9.587 37.675,9.593 h 0.032 c 0,0 -0.002,0 0,0 43.45,0 78.819,-35.357 78.837,-78.812 0.008,-21.059 -8.185,-40.86 -23.069,-55.757 z m -55.768,121.258 h -0.027 c -11.758,-0.005 -23.29,-3.162 -33.351,-9.131 l -2.393,-1.42 -24.801,6.504 6.62,-24.173 -1.558,-2.478 c -6.559,-10.43 -10.024,-22.484 -10.018,-34.861 0.014,-36.118 29.41,-65.501 65.554,-65.501 17.502,0.007 33.954,6.829 46.326,19.211 12.372,12.382 19.181,28.84 19.174,46.343 -0.015,36.12 -29.41,65.506 -65.526,65.506 z m 35.943,-49.06 c -1.97,-0.986 -11.655,-5.75 -13.46,-6.407 -1.806,-0.657 -3.119,-0.986 -4.432,0.986 -1.313,1.971 -5.088,6.407 -6.237,7.721 -1.149,1.314 -2.298,1.479 -4.268,0.493 -1.97,-0.986 -8.317,-3.065 -15.841,-9.774 -5.856,-5.221 -9.81,-11.671 -10.959,-13.642 -1.149,-1.971 -0.122,-3.037 0.864,-4.019 0.886,-0.882 1.97,-2.3 2.955,-3.45 0.985,-1.15 1.313,-1.971 1.97,-3.286 0.657,-1.314 0.328,-2.464 -0.164,-3.45 -0.492,-0.986 -4.432,-10.679 -6.073,-14.621 -1.599,-3.84 -3.223,-3.32 -4.432,-3.381 -1.148,-0.057 -2.462,-0.069 -3.775,-0.069 -1.313,0 -3.447,0.493 -5.253,2.464 -1.806,1.971 -6.894,6.736 -6.894,16.428 0,9.692 7.058,19.057 8.044,20.371 0.985,1.314 13.89,21.205 33.651,29.735 4.7,2.029 8.369,3.24 11.23,4.148 4.719,1.498 9.014,1.287 12.408,0.78 3.785,-0.565 11.655,-4.764 13.296,-9.364 1.641,-4.6 1.641,-8.543 1.149,-9.364 -0.492,-0.821 -1.806,-1.314 -3.775,-2.3 z"
       fill="#ffffff"
       fill-rule="evenodd"
       id="path4" />
  </g>
</svg>
