<?xml version="1.0" encoding="UTF-8" standalone="no"?>
<svg
   id="uuid-054f0967-fca2-4155-9e73-e8912172b261"
   viewBox="0 0 222.20002 219.1"
   version="1.1"
   width="222.20001"
   height="219.10001"
   xmlns="http://www.w3.org/2000/svg"
   xmlns:svg="http://www.w3.org/2000/svg">
  <defs
     id="defs5">
    <clipPath
       id="uuid-0db7bae5-b48f-4e35-a16e-8b69e615c91a">
      <rect
         x="28.4"
         y="22.299999"
         width="219.10001"
         height="219.10001"
         rx="63.400002"
         ry="63.400002"
         fill="none"
         id="rect2" />
    </clipPath>
  </defs>
  <g
     id="g19"
     transform="translate(-25.299999,-22.299999)">
    <rect
       x="25.299999"
       y="22.299999"
       width="219.10001"
       height="219.10001"
       rx="63.400002"
       ry="63.400002"
       fill="#ffffff"
       id="rect7" />
    <g
       id="g17">
      <path
         d="m 104.1,189.7 c -9.1,0 -18.2,-0.2 -27.3,0 -3.6,0 -4.9,-1.2 -4.4,-4.6 1.4,-9.2 2.8,-18.4 4.2,-27.7 1.9,-12.5 3.8,-24.9 5.7,-37.4 1.3,-7.9 2.7,-15.8 4,-23.8 1.7,-10.5 3.4,-21 5,-31.5 0.7,-4.7 3,-6.7 8,-6.6 16.9,0.2 33.8,-0.1 50.7,0.2 9.1,0.2 18,2.3 25.3,8 9.3,7.3 11.2,17.6 9.7,28.8 0,0 -0.4,-0.1 -0.4,-0.1 -4.4,-1.8 -8.9,-3.7 -13.7,-3.8 -15.2,-0.2 -30.4,0 -45.7,0 -3.3,0 -5,1.6 -6.2,4.6 -1.3,3.4 -0.6,6.9 -1.3,10.3 -2.6,12.5 -4.7,25.2 -5.5,38 v 0 c -0.3,0.3 -0.7,0.6 -1,1 -0.7,9.8 -3.4,19.2 -4.2,29 -0.4,5.3 -1.9,10.5 -2.9,15.8 z"
         fill="#273d82"
         id="path9" />
      <path
         d="m 104.1,189.7 c 1,-5.3 2.5,-10.5 2.9,-15.8 0.8,-9.8 3.4,-19.2 4.2,-29 0.3,-0.4 0.7,-0.7 1,-1.1 0,0 0,0 0,0 2,-1.5 4.4,-1 6.7,-1.1 12,-0.1 23.8,0 35.6,-3.8 18.6,-6.1 29.8,-26.1 30.1,-44 0,0 0.4,0.1 0.4,0.1 11.2,7.4 14.2,15.6 12,29.2 -1.8,10.8 -4.9,20.7 -12.9,28.7 -8.3,8.2 -18.7,10.9 -29.6,11.6 -12.3,0.7 -12.4,0.3 -14.6,12.3 -1.4,7.8 -2.7,15.5 -3.9,23.3 -0.6,3.5 -2.7,5.2 -6.1,5.3 -7.6,0 -15.2,0 -22.9,0 -4.1,0 -5.5,-1.9 -4.4,-6.1 0.8,-3.1 1.8,-6.3 1.4,-9.7 z"
         fill="#279ad4"
         id="path11" />
      <path
         d="m 184.5,95 c -0.3,17.9 -11.5,37.9 -30.1,44 -11.7,3.9 -23.6,3.7 -35.6,3.8 -2.3,0 -4.6,-0.4 -6.7,1.1 0.8,-12.8 2.9,-25.4 5.5,-38 0.7,-3.4 0,-6.9 1.3,-10.3 1.2,-3.1 2.9,-4.6 6.2,-4.6 15.2,0 30.4,-0.1 45.7,0 4.8,0 9.3,2 13.7,3.8 z"
         fill="#262f66"
         id="path13" />
      <path
         d="m 112.2,143.8 c -0.3,0.4 -0.7,0.7 -1,1.1 0.3,-0.4 0.7,-0.7 1,-1.1 z"
         fill="#262f66"
         id="path15" />
    </g>
  </g>
  <g
     clip-path="url(#uuid-0db7bae5-b48f-4e35-a16e-8b69e615c91a)"
     id="g29"
     transform="translate(-25.299999,-22.299999)">
    <g
       id="g27">
      <path
         d="m 139,256.5 c -39.5,0 -79,0 -118.5,0 -2.7,0 -4,0 -4,-3.6 0.1,-79.4 0.1,-158.7 0,-238.1 0,-3.1 0.8,-3.5 3.6,-3.5 79.4,0 158.7,0 238.1,0 3.1,0 3.5,0.8 3.5,3.6 0,79.4 0,158.7 0,238.1 0,3.1 -0.8,3.5 -3.6,3.5 -39.7,0 -79.4,0 -119,0 z M 251.6,134.4 c 0,-23.6 0,-47.3 0,-70.9 0,-2 0,-3.9 -0.6,-5.9 -3.7,-10 -7.2,-19.9 -16.1,-27.2 -9.3,-7.6 -19,-12.2 -31.2,-12.2 -44,0.2 -87.9,0 -131.9,0 -2.3,0 -4.5,0 -6.8,0.8 -11.9,3.6 -21.5,10 -28.5,20.4 -5,7.5 -8,15.5 -8,24.5 0,46.6 0,93.2 0,139.8 0,9 2.5,17.3 7.8,25.1 10.4,15.4 25.6,21.9 42.8,22.2 39.1,0.8 78.3,0.1 117.5,0.4 7.3,0 14,-2.4 21,-3.3 2.4,-0.3 4.8,-1.2 6.9,-2.5 10.1,-6.2 18.9,-13.7 23,-25.3 2,-5.7 4.4,-11.2 4.3,-17.7 -0.3,-22.8 -0.1,-45.6 -0.1,-68.4 z"
         fill="#fdfcfe"
         id="path21" />
      <path
         d="m 251.6,134.5 c 0,22.8 -0.2,45.6 0.1,68.4 0,6.5 -2.3,12 -4.3,17.7 -4.1,11.6 -12.9,19.1 -23,25.3 -2,1.2 -4.5,2.1 -6.9,2.5 -7,1 -13.7,3.4 -21,3.3 C 157.3,251.5 118.2,252.1 79,251.3 61.7,251 46.6,244.4 36.2,229.1 30.9,221.3 28.4,213 28.4,204 c -0.1,-46.6 0,-93.2 0,-139.8 0,-9 2.9,-17 8,-24.5 7,-10.4 16.7,-16.8 28.5,-20.4 2.3,-0.7 4.5,-0.8 6.8,-0.8 44,0 87.9,0.1 131.9,0 12.2,0 21.9,4.6 31.2,12.2 8.9,7.3 12.4,17.1 16.1,27.2 0.7,2 0.6,3.9 0.6,5.9 0,23.6 0,47.3 0,70.9 z m -120.3,38.7 c 0,-0.7 0,-1.1 0.2,-1.3 3.9,-4.9 8.1,-9.4 11.6,-14.6 5.4,-8 12,-15 17.8,-22.7 4.4,-5.8 9,-11.6 13.7,-17.2 2.8,-3.3 5.3,-7 8.4,-10.1 3.3,-3.2 6.4,-6.8 8.6,-10.8 4.1,-7.3 2.5,-15.4 1.5,-23.2 -0.5,-3.8 -3,-5.6 -7.3,-5.4 -8.1,0.4 -16.2,0 -24.3,0.2 -3.6,0.1 -5.5,-0.5 -5.1,-4.8 0.4,-4.1 -0.2,-8.3 0.2,-12.4 0.3,-4 -1.8,-5.5 -5.1,-5.6 -6.6,-0.2 -13.2,-0.2 -19.8,0 -3.4,0 -5.4,1.7 -5.1,5.6 0.3,4.1 -0.2,8.3 0.1,12.4 0.3,3.6 -0.7,4.9 -4.5,4.7 -8.2,-0.3 -16.5,-0.1 -24.8,0 -5.1,0 -7.4,2.2 -7.5,7.4 0,5 0,9.9 0,14.9 0,6.2 1.5,7.7 7.8,7.8 14,0 28.1,0 42.1,0 3.1,0 6.1,0 9.2,0 -3.5,2.8 -4.1,7 -6.7,9.9 -7.8,8.9 -15.5,17.9 -22.7,27.4 -2.2,2.9 -4.8,5.6 -6.8,8.6 -5.2,7.6 -11.3,14.4 -17,21.6 -5.5,6.9 -11.7,12.9 -9.9,22.8 0.3,1.9 0,4 0,5.9 0,6 1.8,7.7 8,7.8 9.4,0 18.8,0.2 28.3,0 3.4,0 4.7,0.7 4.5,4.3 -0.3,5.8 0.1,11.6 -0.2,17.3 -0.2,3.8 1.7,5.1 4.9,5.1 6.8,0 13.6,0 20.3,0 3.3,0 4.9,-1.6 4.8,-5.2 -0.3,-5.8 0.1,-11.6 -0.1,-17.3 -0.1,-3.2 0.9,-4.2 4.1,-4.2 8.9,0.2 17.8,0 26.8,0.1 3.6,0 5.6,-1.4 6,-5 0.7,-6.1 0.7,-12.1 0,-18.2 -0.5,-4.1 -2.7,-5.7 -6.6,-5.6 -2,0 -4,0 -5.9,0 -16.5,0 -32.9,0 -49.4,0 z"
         fill="#8352a1"
         id="path23" />
      <path
         d="m 131.3,173.2 c 16.5,0 33,0 49.4,0 2,0 4,0 5.9,0 3.9,-0.1 6.2,1.5 6.6,5.6 0.7,6.1 0.7,12.1 0,18.2 -0.4,3.6 -2.4,5.1 -6,5 -8.9,-0.1 -17.8,0 -26.8,-0.1 -3.3,0 -4.3,0.9 -4.1,4.2 0.2,5.8 -0.1,11.6 0.1,17.3 0.2,3.7 -1.4,5.2 -4.8,5.2 -6.8,0 -13.5,0 -20.3,0 -3.3,0 -5.1,-1.3 -4.9,-5.1 0.3,-5.8 -0.2,-11.6 0.2,-17.3 0.2,-3.6 -1.1,-4.4 -4.5,-4.3 -9.4,0.2 -18.8,0 -28.3,0 -6.2,0 -8,-1.8 -8,-7.8 0,-2 0.3,-4 0,-5.9 -1.8,-9.9 4.4,-15.9 9.9,-22.8 5.7,-7.1 11.8,-14 17,-21.6 2.1,-3 4.6,-5.7 6.8,-8.6 7.2,-9.4 14.9,-18.4 22.7,-27.4 2.5,-2.9 3.2,-7.1 6.7,-9.9 -3.1,0 -6.1,0 -9.2,0 -14,0 -28.1,0 -42.1,0 -6.3,0 -7.8,-1.6 -7.8,-7.8 0,-5 0,-9.9 0,-14.9 0,-5.2 2.3,-7.3 7.5,-7.4 8.3,0 16.5,-0.2 24.8,0 3.9,0.2 4.8,-1.1 4.5,-4.7 -0.3,-4.1 0.2,-8.3 -0.1,-12.4 -0.3,-3.9 1.6,-5.5 5.1,-5.6 6.6,-0.2 13.2,-0.2 19.8,0 3.3,0 5.4,1.6 5.1,5.6 -0.3,4.1 0.2,8.3 -0.2,12.4 -0.4,4.2 1.4,4.9 5.1,4.8 8.1,-0.2 16.2,0.2 24.3,-0.2 4.4,-0.2 6.8,1.6 7.3,5.4 1,7.8 2.5,15.9 -1.5,23.2 -2.2,4 -5.3,7.6 -8.6,10.8 -3.2,3.1 -5.7,6.8 -8.4,10.1 -4.7,5.6 -9.3,11.4 -13.7,17.2 -5.8,7.7 -12.4,14.7 -17.8,22.7 -3.4,5.1 -7.7,9.7 -11.6,14.6 -0.2,0.2 0,0.6 -0.2,1.3 z"
         fill="#fefdfe"
         id="path25" />
    </g>
  </g>
</svg>
