<?xml version="1.0" encoding="UTF-8" standalone="no"?>
<svg
   id="uuid-9d0eefd0-8c55-458f-8cc8-ec764cd5ea7e"
   viewBox="0 0 219.10001 219.1"
   version="1.1"
   width="219.10001"
   height="219.10001"
   xmlns="http://www.w3.org/2000/svg"
   xmlns:svg="http://www.w3.org/2000/svg">
  <defs
     id="defs17" />
  <rect
     x="0"
     y="0"
     width="219.10001"
     height="219.10001"
     rx="63.400002"
     ry="63.400002"
     fill="#ffffff"
     id="rect2" />
  <g
     id="g12"
     transform="translate(-26.9,-21.799999)">
    <path
       d="m 180.1,146.6 c 0,11.9 0,23.9 0,35.8 0,10.2 -6.1,16.2 -16.3,16.2 -21.4,0 -42.8,0 -64.2,0 -9.9,0 -16,-6.2 -16,-16 0,-31.5 0,-63 0,-94.5 0,-9.6 6.2,-15.8 15.7,-15.8 13.8,0 27.5,0 41.3,0 4.8,0 8.9,1.7 12.4,5.1 6.8,6.6 13.7,13.1 20.6,19.6 4.3,4 6.7,8.7 6.5,14.8 -0.2,11.6 0,23.2 0,34.8 z M 91.5,135.2 c 0,16.2 0,32.5 0,48.7 0,4.5 1.9,6.9 6.4,6.9 22.7,0 45.4,0 68.1,0 3.9,0 6.2,-2.1 6.2,-6.1 0,-23.9 0,-47.7 0,-71.6 0,-2.9 -0.9,-3.7 -3.7,-3.7 -5.6,0.2 -11.3,0.1 -16.9,0 -7,-0.2 -10.2,-3.4 -10.3,-10.5 0,-5 -0.2,-10 0,-14.9 0.2,-3.3 -1,-4.2 -4.2,-4.1 -12.8,0.2 -25.5,0 -38.3,0 -5.6,0 -7.4,1.9 -7.4,7.4 0,15.9 0,31.8 0,47.7 z m 74.4,-33.1 c -4.4,-5 -9,-10.3 -13.6,-15.5 -0.6,-0.7 -1.2,-1.7 -2.4,-1.2 -1,0.4 -0.7,1.4 -0.7,2.2 0,4 0,7.9 0,11.9 0,1.8 0.7,2.7 2.6,2.7 5.1,0 10.1,0 14.2,0 z"
       id="path4" />
    <path
       d="m 131.1,148.9 c -8.1,0 -16.2,0 -24.3,0 -2.9,0 -6.2,-0.2 -6.2,-4 0,-3.8 3.4,-3.9 6.3,-3.9 16.2,0 32.5,0 48.7,0 3.2,0 6.2,1.1 6.2,4.1 0,3.4 -3.4,3.8 -6.3,3.7 -8.1,0 -16.2,0 -24.3,0 z"
       id="path6" />
    <path
       d="m 130.9,122 c 8.4,0 16.9,0 25.3,0 2.7,0 5.5,0.4 5.6,3.4 0,3 -2.5,3.7 -5.3,3.6 -16.9,0 -33.8,0 -50.7,0 -2.8,0 -5.3,-0.5 -5.3,-3.7 0,-3 2.5,-3.3 5,-3.3 8.4,0 16.9,0 25.3,0 z"
       id="path8" />
    <path
       d="m 112.8,160.9 c 2.8,0 5.6,0 8.5,0 2.5,0 3.7,1.3 4,3.5 0.3,2.6 -1.3,4.3 -3.7,4.4 -5.8,0.2 -11.6,0.2 -17.4,0 -2.3,0 -3.6,-1.9 -3.6,-4 0,-2.4 1.6,-3.9 4.2,-3.8 2.6,0 5.3,0 8,0 z"
       id="path10" />
  </g>
</svg>
