<?xml version="1.0" encoding="UTF-8" standalone="no"?>
<svg
   id="uuid-3780c607-8b03-4558-8b16-8e6ac26bbe98"
   viewBox="0 0 139.15491 172.86075"
   version="1.1"
   width="63.613674"
   height="79.022057"
   xmlns="http://www.w3.org/2000/svg"
   xmlns:svg="http://www.w3.org/2000/svg">
  <defs
     id="defs14">
    <clipPath
       id="uuid-0e93e2bf-7570-4f30-a230-07bc0e22a5d4">
      <path
         d="m 26.5,70 c 0,30.2 22.9,54.6 51.1,54.6 28.2,0 51.1,-24.4 51.1,-54.6 C 128.7,39.8 105.9,0 77.7,0 49.5,0 26.5,39.8 26.5,70 Z"
         fill="none"
         id="path2" />
    </clipPath>
    <radialGradient
       id="uuid-8d95afd8-97d7-4f82-8811-861d03eff376"
       cx="108.2"
       cy="27.9"
       fx="108.2"
       fy="27.9"
       r="100.1"
       gradientUnits="userSpaceOnUse">
      <stop
         offset="0"
         stop-color="#fff"
         id="stop5" />
      <stop
         offset=".2"
         stop-color="#f6f6f7"
         id="stop7" />
      <stop
         offset=".6"
         stop-color="#e1dfe2"
         id="stop9" />
      <stop
         offset="1"
         stop-color="#c2bfc5"
         id="stop11" />
    </radialGradient>
  </defs>
  <g
     clip-path="url(#uuid-0e93e2bf-7570-4f30-a230-07bc0e22a5d4)"
     id="g36"
     transform="matrix(1.3615941,0,0,1.3873255,-36.082244,0)">
    <g
       id="g34">
      <g
         id="g375">
        <path
           d="m 26.5,70 c 0,30.2 22.9,54.6 51.1,54.6 28.2,0 51.1,-24.4 51.1,-54.6 C 128.7,39.8 105.9,0 77.7,0 49.5,0 26.5,39.8 26.5,70 Z"
           fill="url(#uuid-8d95afd8-97d7-4f82-8811-861d03eff376)"
           id="path20"
           style="fill:url(#uuid-8d95afd8-97d7-4f82-8811-861d03eff376)" />
        <path
           d="m 96.1,5.3 c 0,0 3.6,4.7 -11.3,-0.7 0,0 -5.1,-1.4 -10.7,0.1 0,0 -16.8,5.5 -13.8,-0.3 l -3.5,2.2 c 0,0 -1.9,5.3 10.2,2.2 0,0 6,-2.5 12.2,-2.6 6.2,-0.1 12.8,2.5 12.8,2.5 0,0 14.5,3.8 4.1,-3.6 z"
           fill="#728be2"
           id="path22" />
        <path
           d="m 34.6,33.8 c 0,0 -2,12.1 33.9,0.2 0,0 13.3,-2.4 22.9,0.9 0,0 26.5,10.3 28.7,-0.9 l 2.1,4 c 0,0 1.1,8.8 -18.8,4.7 0,0 -22,-11.4 -52.9,0.2 0,0 -17.6,4 -18.1,-4.7 l 2.1,-4.4 z"
           fill="#728be2"
           id="path24" />
        <path
           d="m 25.5,71.1 c 0,0 1.5,9.4 29.6,0.9 0,0 17.2,-5.2 38.7,0.4 21.5,5.5 28.6,2.2 28.6,2.2 0,0 3.3,-0.9 6.6,-4.7 v 4.7 c 0,0 -10.4,9.9 -34.1,2.5 -23.7,-7.4 -43,0 -43,0 0,0 -23.1,7.6 -26.4,-1.8 v -4 z"
           fill="#728be2"
           id="path26" />
        <path
           d="m 33.8,101.1 c 0,0 5,5 24.1,-1.4 0,0 12.6,-3.1 27.9,0.3 0,0 26.8,7.6 36.6,-1.1 9.8,-8.7 -0.4,0 -0.4,0 l -1.3,3.2 c 0,0 -15.4,8.2 -35.6,0.8 0,0 -16.5,-2.7 -29.6,0.8 -13.1,3.5 -20.3,0.5 -20.3,0.5 L 33.8,101 Z"
           fill="#728be2"
           id="path28" />
        <path
           d="m 56.4,121.7 c 0,0 5.9,3 7.9,1.1 2,-1.9 16.9,-0.4 16.9,-0.4 0,0 10.4,2.7 20.6,-1.4 0,0 -17.2,1.3 -20.5,0 -3.3,-1.3 -12.6,-0.8 -15.7,-0.3 -3.1,0.5 -1.1,0.2 -1.7,0.4 -1.5,0.5 -5.2,1.4 -7.6,-0.2 v 0.9 z"
           fill="#728be2"
           id="path30" />
        <path
           d="m 26.5,70 c 0,30.2 22.9,54.6 51.1,54.6 28.2,0 51.1,-24.4 51.1,-54.6 C 128.7,39.8 105.9,0 77.7,0 49.5,0 26.5,39.8 26.5,70 Z"
           fill="none"
           id="path32" />
      </g>
    </g>
  </g>
</svg>
